<!-- SVG Menu Generated By CIRCULUS.SVG :: http://sarasoueidan.com/tools/circulus -->
<svg xmlns="http://www.w3.org/2000/svg" xmlns:xlink="http://www.w3.org/1999/xlink" viewBox="-2 -2 504 504" id="menu" style="transform-origin: 50% 50% 0px; transform: translate3d(0px, 0px, 0px); touch-action: none; -webkit-user-select: none;">
    <style>
        #menu {
            display: block;
            margin: 0 auto;
            /*overflow: visible;*/ /* uncomment this if you are using bouncing animations*/
        }

        a { 
            cursor: pointer; /* SVG <a> elements don't get this by default, so you need to explicitly set it */
            outline: none;
        }
        
        /* You can change these default styles any way you want */

        .item .sector {
            transition: all .1s linear;
            fill: rgba(24, 24, 24, 0.75);
            stroke: #111;
        }
        
        .item:hover .sector, .item:focus .sector {
            fill: #191919;
        }
      
        text { font-family: FontAwesome; fill:#CCC; font-size:3em; }

        .menu-trigger {
            fill: rgba(200, 200, 200, 0.5);
            pointer-events: auto; /* KEEP THIS to make sure it stays clickable even when SVG's pointer events is disabled */
        }

        .menu-trigger:hover, .menu-trigger:focus {
            cursor: pointer;
        }
        symbol {
            overflow: visible; /* KEEP THIS so that text will not get cut off it it is wider than the icon width */
        }
    </style>
    <g id="symbolsContainer">
        <symbol class="icon icon-" id="icon-1" viewBox="0 0 40 40">
            <!--Replace the contents of this symbol with the content of your icon-->
            <text fill="#222" x="50%" y="50%" dy=".3em" text-anchor="middle" font-size="1.2em">&#xf01e;</text>
        </symbol>
        <symbol class="icon icon-" id="icon-2" viewBox="0 0 40 40">
            <!--Replace the contents of this symbol with the content of your icon-->
            <text fill="#222" x="50%" y="50%" dy=".3em" text-anchor="middle" font-size="1.2em">&#xf0d8;</text>
        </symbol>
        <symbol class="icon icon-" id="icon-3" viewBox="0 0 40 40">
            <!--Replace the contents of this symbol with the content of your icon-->
            <text fill="#222" x="50%" y="50%" dy=".3em" text-anchor="middle" font-size="1.2em">&#xf0e2;</text>
        </symbol>
        <symbol class="icon icon-" id="icon-4" viewBox="0 0 40 40">
            <!--Replace the contents of this symbol with the content of your icon-->
            <text fill="#222" x="50%" y="50%" dy=".3em" text-anchor="middle" font-size="1.2em">&#xf0d9;</text>
        </symbol>
        <symbol class="icon icon-" id="icon-5" viewBox="0 0 40 40">
            <!--Replace the contents of this symbol with the content of your icon-->
            <text fill="#222" x="50%" y="50%" dy=".3em" text-anchor="middle" font-size="1.2em">&#xf0d7;</text>
        </symbol>
        <symbol class="icon icon-" id="icon-6" viewBox="0 0 40 40">
            <!--Replace the contents of this symbol with the content of your icon-->
            <text fill="#222" x="50%" y="50%" dy=".3em" text-anchor="middle" font-size="1.2em">&#xf0da;</text>
        </symbol>
    </g>
     <g id="itemsContainer">
        <a class="item" id="item-1" role="link" tabindex="0" xlink:href=" " xlink:title=" " transform="matrix(1,0,0,1,0,0)" data-svg-origin="250 250" style="">
            <path fill="none" stroke="#111" d="M375,250 l125,0 A250,250 0 0,0 380.2350851219826,36.60172774066339 l-65.1175425609913,106.69913612966829 A125,125 0 0,1 375,250" class="sector"></path>
            <use xlink:href="#icon-1" width="40" height="40" x="385.22479248046875" y="142.8836212158203"></use>
        </a>
        <a class="item" id="item-2" role="link" tabindex="0" xlink:href=" " xlink:title=" " transform="matrix(0.5,-0.86602,0.86602,0.5,-91.5063509461097,341.5063509461096)" data-svg-origin="250 250" style="">
            <path fill="none" stroke="#111" d="M375,250 l125,0 A250,250 0 0,0 380.2350851219826,36.60172774066339 l-65.1175425609913,106.69913612966829 A125,125 0 0,1 375,250" class="sector"></path>
            <use xlink:href="#icon-2" width="40" height="40" x="385.22479248046875" y="142.8836212158203" transform="rotate(60 397.2243347167969 165)"></use>
        </a>
        <a class="item" id="item-3" role="link" tabindex="0" xlink:href=" " xlink:title=" " transform="matrix(-0.49999,-0.86602,0.86602,-0.49999,158.49364905389024,591.5063509461097)" data-svg-origin="250 250" style="">
            <path fill="none" stroke="#111" d="M375,250 l125,0 A250,250 0 0,0 380.2350851219826,36.60172774066339 l-65.1175425609913,106.69913612966829 A125,125 0 0,1 375,250" class="sector"></path>
            <use xlink:href="#icon-3" width="40" height="40" x="385.22479248046875" y="142.8836212158203" transform="rotate(90 397.2243347167969 165)"></use>
        </a>
        <a class="item" id="item-4" role="link" tabindex="0" xlink:href=" " xlink:title=" " transform="matrix(-1,0,0,-1,500,500)" data-svg-origin="250 250" style="">
            <path fill="none" stroke="#111" d="M375,250 l125,0 A250,250 0 0,0 380.2350851219826,36.60172774066339 l-65.1175425609913,106.69913612966829 A125,125 0 0,1 375,250" class="sector"></path>
            <use xlink:href="#icon-4" width="40" height="40" x="385.22479248046875" y="142.8836212158203" transform="rotate(180 397.2243347167969 165)"></use>
        </a>
        <a class="item" id="item-5" role="link" tabindex="0" xlink:href=" " xlink:title=" " transform="matrix(-0.5,0.86602,-0.86602,-0.5,591.5063509461097,158.4936490538905)" data-svg-origin="250 250" style="">
            <path fill="none" stroke="#111" d="M375,250 l125,0 A250,250 0 0,0 380.2350851219826,36.60172774066339 l-65.1175425609913,106.69913612966829 A125,125 0 0,1 375,250" class="sector"></path>
            <use xlink:href="#icon-5" width="40" height="40" x="385.22479248046875" y="142.8836212158203" transform="rotate(240 397.2243347167969 165)"></use>
        </a>
        <a class="item" id="item-6" role="link" tabindex="0" xlink:href=" " xlink:title=" " transform="matrix(0.5,0.86602,-0.86602,0.5,341.5063509461096,-91.5063509461097)" data-svg-origin="250 250" style="">
            <path fill="none" stroke="#111" d="M375,250 l125,0 A250,250 0 0,0 380.2350851219826,36.60172774066339 l-65.1175425609913,106.69913612966829 A125,125 0 0,1 375,250" class="sector"></path>
            <use xlink:href="#icon-6" width="40" height="40" x="385.22479248046875" y="142.8836212158203"  transform="rotate(300 397.2243347167969 165)"></use>
        </a>
    </g>
    <g id="trigger" class="trigger menu-trigger" role="button">
        <circle cx="250" cy="250" r="45"></circle>
        <!-- menu button label or icon goes here -->
    </g>
</svg>