<?xml version="1.0" encoding="utf-8"?>
<!-- Generator: Adobe Illustrator 19.0.0, SVG Export Plug-In . SVG Version: 6.00 Build 0)  -->
<!DOCTYPE svg PUBLIC "-//W3C//DTD SVG 1.1//EN" "http://www.w3.org/Graphics/SVG/1.1/DTD/svg11.dtd">
<svg version="1.1" id="Calque_1" xmlns="http://www.w3.org/2000/svg" xmlns:xlink="http://www.w3.org/1999/xlink" x="0px" y="0px"
	 viewBox="0 0 263.9 263.9" style="enable-background:new 0 0 263.9 263.9;" xml:space="preserve">
<style type="text/css">
	.st0{fill:#000;}
</style>
<path class="st0" d="M0,123.4c0.3-2.1,0.6-4.2,0.8-6.3c2.9-24.9,11.9-47.2,27.5-66.8C48.9,24.4,75.5,8.4,108,2.2
	c4.7-0.9,9.5-1.2,14.2-1.9c0.4-0.1,0.8-0.2,1.2-0.3c5.6,0,11.2,0,16.8,0c1.2,0.2,2.5,0.4,3.7,0.5C170.4,3,194,12.5,214.6,29.2
	c25.3,20.5,41.3,46.8,47,78.9c7,39.3-1.9,75.1-26.8,106.4C214.6,240,188.1,256,156,261.7c-42.8,7.5-80.8-3.4-113.2-32.5
	C21,209.5,7.7,184.9,2.2,156.1c-0.9-4.8-1.3-9.7-1.9-14.6c-0.1-0.4-0.2-0.8-0.3-1.2C0,134.6,0,129,0,123.4z M131.6,2.7
	C60.4,2.6,2.7,60.2,2.6,131.5c-0.1,71.2,57.6,128.9,129,129c71,0,128.7-57.6,128.8-128.7C260.5,60.6,202.9,2.8,131.6,2.7z"/>
<path class="st0" d="M131.9,237.9c-58.7-0.1-106.2-47.7-106.1-106.3C26,72.9,73.5,25.5,132.1,25.6c58.8,0.1,106.3,47.7,106.2,106.4
	C238.1,190.6,190.5,238,131.9,237.9z M235,131.7c0-57-46.1-103.1-103.1-103.1C75.1,28.6,29,74.8,29,131.6
	c0,56.9,46.2,103,103.1,102.9C188.9,234.5,235,188.4,235,131.7z"/>
<path class="st0" d="M256.5,137.3c0,0.7-0.1,1.4-0.1,2c-0.1,0-0.3,0-0.4,0.1c-2.9-0.2-5.8-0.3-8.9-0.5c0.2,1.3,0.3,2.3,0.5,3.4
	c-0.3,0-0.9,0-1.3,0c0.3-1.1,0.5-2.1,0.9-3.4c-1.6-0.1-3-0.2-4.5-0.3c-0.1,0.6-0.2,1-0.3,1.4c0,0-0.1,0-0.1,0c0-1.4,0-2.8,0-4.5
	c1.1,2,2.8,1,4.2,1.4c0.2,0.1,0.7-0.6,1-0.9c0,0.2,0.1,0.6,0.2,1.3c2.9,0,5.9,0,8.8,0C256.3,137.3,256.4,137.3,256.5,137.3
	L256.5,137.3z"/>
<path class="st0" d="M251.8,166.6c-3.2,0.4-6.1,0.9-9.1,1.1c-0.7,0.1-1.4-0.4-2.1-0.6c-1.2-0.4-2.3-0.7-3.7-1.1c0.3-1,0.6-2,0.9-3
	c-0.2,1.1,0.4,1.3,1.3,1.7c4.2,1.7,8.3,0.2,12.5,0.1c0.2,0,0.5-0.4,0.9-0.8C252.3,165,252,165.9,251.8,166.6z"/>
<path class="st0" d="M103.3,10.7c1.1-0.2,2.2-0.4,3.7-0.7c-0.7,0.4-1,0.6-1.4,0.8c1.6,2.3,3.3,4.6,4.9,6.9c0.2,0.3,0.2,0.8,0.3,1.2
	c0.2,0.8,0.3,1.6,0.5,2.5c0.5,2.6,0.4,2.6-2.1,2.7c0.1-0.4,0.4-0.8,0.4-1.3c-0.2-2.4-1-4.5-2.4-6.5
	C105.8,14.6,104.7,12.7,103.3,10.7z"/>
<path class="st0" d="M86.4,16.2c1.3-0.5,2.5-1.1,3.9-1.6c0.1,0.5,0.2,0.9,0.3,1.3c-0.8-0.1-1.5-0.1-2.5-0.2c1.7,4.5,3.4,8.8,5,13.2
	c-0.7,0.3-1.3,0.5-1.7,0.7c-1.7-4.4-3.4-8.7-5-13C86.5,16.4,86.4,16.3,86.4,16.2z"/>
<path class="st0" d="M18.9,109.2c1.2,0.3,2.4,0.6,3.6,0.8c0.4,0.1,0.9-0.2,1.5-0.4c-0.2,0.9-0.5,2.2-0.7,3.5
	c-0.6-1.9-2.4-1.3-3.7-1.7c-0.4-0.1-1,0.3-1.4,0.5c0,0,0-0.4,0.1-0.8c-3-0.7-6-1.3-9-1.9c0.1-0.5,0.3-1.1,0.5-1.9
	c2.6,0.6,5.2,1.2,7.8,1.8c0.3,0.1,0.6,0.1,1,0.1C18.7,109.2,18.8,109.2,18.9,109.2z"/>
<path class="st0" d="M255,148.8c-2.9-0.4-5.8-0.8-8.7-1.2c-0.1,0-0.3,0-0.4-0.1c-1.5-0.2-2.9-0.4-4.4-0.6c-0.1,0-0.2,0-0.2,0
	c0.1-0.6,0.2-1.2,0.2-1.9c1.1,0.2,2.2,0.4,3.2,0.4c0.7,0,1.3-0.3,1.8-0.4c0.3,0.2,0.7,0.7,1.2,0.8c2.1,0.4,4.3,0.7,6.4,0.9
	c0.6,0.1,1.1-0.2,1.7-0.3c-0.1,0.5-0.2,1.4-0.4,2.3C255.3,148.8,255.2,148.8,255,148.8z"/>
<path class="st0" d="M101.2,238.2c0.7,0.2,1.6,0.4,2.5,0.7c-1.3,4.6-2.5,9.2-3.8,13.9c-0.6-0.2-1.5-0.4-2.2-0.6
	c0.3-0.4,0.6-0.7,0.7-1.1c1.1-3.8,2.1-7.6,3.1-11.4C101.6,239.2,101.3,238.7,101.2,238.2z"/>
<path class="st0" d="M116.6,241.5c0.9,0.1,1.8,0.2,2.4,0.3c-0.3,0.5-0.7,0.9-0.8,1.4c-0.6,3.7-1.1,7.5-1.6,11.2
	c-0.1,0.5,0.2,1,0.3,1.6c-0.9-0.1-2.1-0.3-3.2-0.4c0.3-0.4,0.9-0.7,0.9-1.1c0.6-4.2,1.2-8.5,1.8-12.7
	C116.5,241.7,116.5,241.6,116.6,241.5z"/>
<path class="st0" d="M148.1,255.6c-0.9,0.2-1.9,0.4-2.5,0.6c0.1-0.6,0.5-1.3,0.4-1.9c-0.4-3.7-0.8-7.3-1.3-10.9
	c-0.1-0.5-0.5-1-0.8-1.5c0.9-0.1,2.2-0.2,3.2-0.4c-0.2,0.5-0.5,0.9-0.5,1.4C147,247.1,147.5,251.3,148.1,255.6z"/>
<path class="st0" d="M126.1,253.6c-0.4,1-0.7,2-1.1,2.9c-0.1,0-0.2,0-0.4-0.1c-0.6-2.5-1.3-5-1.9-7.5c-0.4-1.7-0.4-1.7-2-2.1
	c0.5-0.1,0.9-0.1,1.5-0.2c-0.5-1.6-0.9-3.2-1.3-4.7c0.1,0,0.7,0,1.3,0c0.5,0,1.1,0,1.5,0.1c-0.9,1.8,0.3,3.3,0.7,4.9
	c0,0.1,0,0.3,0,0.4c0.2,0.8,0.3,1.6,0.5,2.4c0.4,1.2,0.8,2.3,1.2,3.5C126,253.4,126.1,253.5,126.1,253.6z"/>
<path class="st0" d="M17.4,173.1c-0.8,0.7-1.6,1.4-2.5,2.1c-0.7-1-0.8-1.7,0.1-2.6c2.2-2.2,4.5-4.4,6.3-7c1.3-1.8,3-1.9,4.8-2.4
	c-2.8,3.1-5.6,6.1-8.5,9.2C17.6,172.6,17.5,172.9,17.4,173.1z"/>
<path class="st0" d="M136.8,17.5c0,1.5,0,2.9,0,4.5c-0.8,0-1.5,0-2.3,0c0.1-1.4,0.4-2.6,0.4-3.9c0-0.4-0.4-0.9-0.6-1.2
	c0.1-0.2,0.6-0.6,0.7-1c0.2-2.4,0.3-4.8,0.4-7.2c0-0.4-0.5-0.8-0.7-1.2c0.8,0.1,1.7,0.1,2.7,0.2c0,0.1,0,0.2,0,0.3
	c-0.1,2.9-0.2,5.9-0.4,8.8C136.9,17.1,136.8,17.3,136.8,17.5z"/>
<path class="st0" d="M253.6,128.1c0.9,0.2,1.9,0.4,2.8,0.7c0,0.1,0,0.2,0.1,0.4c-0.4,0.2-0.8,0.3-1.2,0.5c-2.1,0.7-4.2,1.5-6.3,2.1
	c-1.1,0.3-1.9,0.7-1.7,2.1c-0.1-0.4-0.1-0.8-0.2-1.1c-0.6-0.4-4.1,1.1-4.6,2c-0.1-1.3-0.1-2.5-0.2-3.7c0.1,0,0.1,0,0.2-0.1
	c0.1,0.3,0.3,0.5,0.4,0.8c1.3-0.5,2.6-0.9,3.9-1.3c0.2-0.1,0.4-0.2,0.6-0.3c1.6-0.5,3.2-1.1,4.7-1.6
	C252.6,128.4,253.1,128.2,253.6,128.1z"/>
<path class="st0" d="M153.6,21c-0.5,0.9-1,1.8-1.5,2.7c-0.1,0-0.2,0-0.3,0c-0.1-0.9-0.2-1.7-0.3-2.6c-0.4-3.7-0.7-7.4-1.2-11.1
	c-0.1-0.5-0.4-0.9-0.6-1.4c1,0.2,2.3,0.5,3.6,0.7c0,0.1,0,0.1,0,0.2c-0.3,0-0.5,0-1,0.1c0.3,3.5,0.6,7,0.9,10.5
	C153.4,20.3,153.5,20.7,153.6,21z"/>
<path class="st0" d="M133.7,246.2c-0.1-1.1-0.1-2.2-0.2-3.2c0.2,0,0.4,0,0.6,0c1.9,3,3.7,5.9,5.6,8.9c0.3,0.4,0.6,0.8,0.9,1.1
	c0,0,0.1,0,0.1,0l0.1,0c0.4,1.4,0.8,2.8,2.3,3.4c-2,0.7-3.1-0.2-4.1-2c-1.4-2.6-3.1-5.1-4.6-7.6
	C134.1,246.6,133.9,246.4,133.7,246.2z"/>
<path class="st0" d="M250.1,92.3c-4.7,1.6-9.1,3.1-13.6,4.7c-0.1-0.4-0.4-1-0.7-1.7c4.1-1.4,8.1-2.8,12.1-4.2c0.5-0.2,0.8-0.7,1.3-1
	C249.4,90.6,249.8,91.6,250.1,92.3z"/>
<path class="st0" d="M63.5,31.9c-1-0.6-2-1.2-3-1.8l0,0c0.8-1.2,1.7-1.4,3-0.7c2.9,1.7,5.9,3.2,8.9,4.8c0.3,0.1,0.6,0.1,0.9,0.2
	c0.6,1,1.2,1.9,1.8,2.9c0,0-0.1,0.1-0.1,0.2c-3.1-1.6-6.1-3.2-9.2-4.7c-0.6-0.3-1.2-0.6-1.9-0.9C63.8,31.9,63.6,31.9,63.5,31.9z"/>
<path class="st0" d="M39.4,65.7c1,0.6,2,1.3,2.9,1.9c0,0.1,0,0.2-0.1,0.3c-2.1-0.2-4.3-0.3-6.4-0.5c-1.6-0.1-3.2-0.3-4.8-0.4
	c-0.4,0-0.8,0.2-1.2,0.2c0,0,0,0,0,0c-1.3-0.2-2.6-0.4-3.9-0.6l0,0c0.2-1.4,0.9-1.9,2.4-1.8c3.4,0.4,6.8,0.6,10.3,0.9
	C38.9,65.8,39.1,65.7,39.4,65.7z"/>
<path class="st0" d="M210.2,47.7c-1.2,1.1-2.4,2.1-3.7,3.3c-0.2-0.2-0.8-0.7-1.3-1.2c0.9-0.9,1.8-1.8,2.6-2.8
	c0.3-0.3,0.2-0.8,0.4-1.2l0,0c0.4-0.1,0.9-0.1,1.2-0.4c1.7-1.8,3.4-3.6,5-5.4c0.2-0.2,0.2-0.7,0.3-1c0,0,0,0,0,0
	c0.6,0.5,1.2,1,1.8,1.6c-2,2.1-3.8,4.1-5.6,6c-0.2,0.3-0.3,0.7-0.5,1C210.2,47.6,210.2,47.6,210.2,47.7z"/>
<path class="st0" d="M70.7,240.8c-0.6-0.3-1.1-0.6-1.6-0.9c2.5-4.1,4.9-8.2,7.3-12.4c0.6,0.4,1.2,0.7,1.7,1
	C75.5,232.7,73.1,236.7,70.7,240.8z"/>
<path class="st0" d="M95.1,251.2c-2.4-0.2-2.6-0.4-3-2.7c-0.5-3-1-6.1-1.5-9.1c-0.1-0.4-0.3-0.8-0.4-1.3c0.4-1.1,0.8-2.2,1.1-3.3
	c0.1,0,0.2,0,0.3,0c0.7,4,1.3,7.9,2,11.9c0.2,0.2,0.3,0.5,0.5,0.7C94,248.8,93.8,250.2,95.1,251.2L95.1,251.2z"/>
<path class="st0" d="M11.2,119.2c-1-0.4-2-0.9-3-1.3c4.9-1.5,10-2,14.7-3.4c-0.1,0.8-0.2,1.9-0.3,2.9c-1.8-0.9-3.3,0.1-4.9,0.4
	c-0.1,0-0.2,0-0.3,0c-1.8,0.3-3.7,0.6-5.5,0.9C11.6,118.9,11.4,119.1,11.2,119.2z"/>
<path class="st0" d="M7.9,140.6c4.6-0.2,9.2-0.5,13.9-0.7c0.1,0.9,0.2,1.8,0.3,2.8c-1.1-1.8-2.7-0.6-3.9-0.7c-0.4,0-0.8,0.5-1,0.6
	c-0.5-0.2-1-0.5-1.5-0.5c-2.3,0.1-4.5,0.3-6.8,0.5c-0.4,0-0.8,0.5-1.3,0.7c0-0.7,0-1.6,0-2.5C7.7,140.8,7.8,140.7,7.9,140.6z"/>
<path class="st0" d="M95.1,13.6c0.8,2.7,1.5,5.3,2.3,8c0.2,0.5,0.3,0.9,0.5,1.4c0.3,1.3,0.7,2.6,1.1,4c-0.5,0.1-1.3,0.4-1.9,0.6
	c-1.4-4.6-2.7-9.1-4.1-13.8c0.6-0.1,1.3-0.2,2-0.3C95.1,13.4,95.1,13.5,95.1,13.6z"/>
<path class="st0" d="M23.3,193.1c-0.5-0.9-1-1.8-1.5-2.6l0,0c0.3,0,0.6,0,0.8-0.1c3.9-2.1,7.7-4.2,11.8-6.4c0.3,0.5,0.6,1,1,1.6
	c-3.8,2-7.4,4-11.1,6C23.7,191.9,22.9,192.1,23.3,193.1L23.3,193.1z"/>
<path class="st0" d="M48.4,224.7c-0.7-0.5-1.3-1.1-1.9-1.6c3-3.2,6-6.4,9-9.7c0.2-0.3,0.3-0.7,0.4-1.1c0,0,0,0,0,0
	c0.6,0.4,1.2,0.9,2,1.4c-3,3.2-5.8,6.2-8.6,9.3C48.7,223.4,48.6,224.1,48.4,224.7L48.4,224.7z"/>
<path class="st0" d="M232.9,87.7c4.2-1.7,8.2-3.4,12.2-5.1c0.3-0.1,0.5-0.7,0.7-1c0.3,0.6,0.6,1.5,1,2.4c-4.4,1.8-8.8,3.6-13.3,5.5
	C233.4,88.8,233.1,88.3,232.9,87.7z"/>
<path class="st0" d="M77.9,35.7c-0.4-0.8-0.7-1.6-1.1-2.4c-1.5-2.8-3.1-5.7-4.6-8.5c-0.3-0.5-0.7-1-1-1.6c0.6-0.3,1.1-0.5,1.8-0.9
	c2.3,4.2,4.5,8.3,6.9,12.7C79.1,35.3,78.5,35.5,77.9,35.7C77.9,35.7,77.9,35.7,77.9,35.7z"/>
<path class="st0" d="M184.2,29.6c-0.9,1.4-1.7,2.8-2.6,4.2c-0.4-0.2-1-0.5-1.5-0.8c2-4,4.1-7.9,6.1-11.9c0.8-1.5,1.4-0.1,2.1-0.1
	C186.9,23.9,185.5,26.7,184.2,29.6C184.2,29.6,184.2,29.6,184.2,29.6z"/>
<path class="st0" d="M163.6,237.9c0.4-0.1,1.1-0.4,1.8-0.6c1.4,4.6,2.8,9.1,4.2,13.8c-0.7,0.2-1.3,0.3-1.8,0.5
	C166.4,247,165,242.5,163.6,237.9z"/>
<path class="st0" d="M30.6,77.3c1.3,0.8,2.6,1.7,4,2.6c-0.3,0.5-0.5,1-0.7,1.5c-4.2-2.3-8.4-4.6-12.7-6.9c0.2-0.3,0.6-0.8,0.9-1.3
	c0.2,0,0.4,0,0.6,0c2.1,1.1,4.2,2.3,6.3,3.4c0.5,0.2,1,0.4,1.5,0.6C30.5,77.3,30.5,77.3,30.6,77.3z"/>
<path class="st0" d="M23.3,152c0.2,0.9,0.3,1.8,0.4,2.5c-0.5-0.1-1.1-0.5-1.7-0.4c-4.2,0.6-8.3,1.3-12.5,2c-0.1-0.5-0.3-1.1-0.4-1.7
	c0.1-0.1,0.2-0.2,0.3-0.4c4.5-0.7,9-1.4,13.5-2C23.1,152,23.2,152,23.3,152z"/>
<path class="st0" d="M175,239.1c-0.5-1.5-1.1-3.1-1.6-4.7c0.4-0.1,1-0.4,1.7-0.7c1.7,4.5,3.5,8.9,5.2,13.4c-0.6,0.2-1.2,0.4-1.7,0.6
	c-1.2-2.9-2.4-5.6-3.6-8.4C175.1,239.3,175.1,239.2,175,239.1z"/>
<path class="st0" d="M38.7,191.3c-0.5,0.1-1.1,0.1-1.5,0.4c-3.6,2.2-7.2,4.4-10.9,6.7c-0.3-0.6-0.7-1.2-1-1.7c0.1,0,0.1-0.1,0.2-0.1
	c4-2.4,8-4.8,12.1-7.2C37.9,189.9,38.3,190.6,38.7,191.3C38.6,191.3,38.7,191.3,38.7,191.3z"/>
<path class="st0" d="M34.8,205.2c-1,0.3-2,0.7-3,1c-0.1-0.1-0.2-0.2-0.2-0.3c2.9-4.1,5.8-8.1,8.7-12.2c0.4,0.7,1,1.7,1.6,2.6l0,0
	c-0.4,0-0.9-0.1-1.1,0.1c-0.7,0.8-1.2,1.7-1.8,2.6c-0.2,0.3-0.4,0.7-0.7,1c-1.2,1.6-2.3,3.1-3.5,4.7C34.8,204.8,34.8,205,34.8,205.2
	z"/>
<path class="st0" d="M82.1,234.4c0.8-0.9,1.5-1.8,2.3-2.8c0.1,0.1,0.2,0.1,0.4,0.2c-0.7,4.9-1.3,9.9-2,15c-0.6-0.3-1.3-0.6-1.9-0.9
	c0.5-3.7,1-7.3,1.5-10.8c0-0.1-0.2-0.3-0.3-0.4C82.1,234.6,82.1,234.5,82.1,234.4z"/>
<path class="st0" d="M168.8,13.3c0.7,0.2,1.3,0.3,1.9,0.5c-1,3-1.9,5.8-2.8,8.7c-0.1,0.2-0.2,0.4-0.3,0.6c-0.4,1.4-0.8,2.8-1.2,4.1
	c-0.1,0-0.3,0.1-0.4,0.1c-0.6-0.2-1.1-0.3-1.6-0.4C166,22.2,167.4,17.7,168.8,13.3C168.9,13.3,168.8,13.3,168.8,13.3z"/>
<path class="st0" d="M192.4,39.9c0.7,0.1,1.2,0.1,1.3-0.8c0.2-1.2,0.5-2.4,0.7-3.6c0.1-0.1,0.1-0.2,0.1-0.3c0.6-1.9,1.2-3.8,1.7-5.7
	c0-0.2,0-0.4,0-0.7c0.8-0.6,1.6-1.3,2.4-1.9c0.1,0.1,0.2,0.1,0.3,0.2c-1.3,4.7-2.5,9.5-3.9,14.5C194,40.9,193.2,40.4,192.4,39.9
	C192.5,39.9,192.4,39.9,192.4,39.9z"/>
<path class="st0" d="M156.1,16.2c0.1-2.9-0.3-5.7-1.4-6.6c1.3,0.3,2.1,0.5,3,0.7c0.2,1,0.3,2,0.5,3c0.1,1.9,0.1,3.7,0.2,5.6
	c0,0.8,0.1,1.5,0.2,2.3c0.1,0.3,0.2,0.6,0.3,0.9c-0.5,0.9-1,1.8-1.5,2.6c-0.1,0-0.3,0-0.4,0c-0.3-2.6-0.5-5.1-0.8-7.7
	C156.2,16.8,156.1,16.5,156.1,16.2z"/>
<path class="st0" d="M33.8,55.4c0.5-0.6,1-1.3,1.5-1.9c0,0.1,0.1,0.1,0.2,0.2c3.2,2.6,6.4,5.2,9.6,7.8c1.4,1.1,1.4,1.1,0.1,2.5
	c-3.2-2.5-6.3-5.1-9.5-7.6c-0.5-0.4-1.1-0.6-1.6-0.9C33.9,55.5,33.8,55.4,33.8,55.4z"/>
<path class="st0" d="M152.6,255.1c-0.5-2.4-0.9-4.8-1.4-7.2c-1.3-6.3-1.3-6.3-2.6-6.5c1.2-0.2,2.1-0.4,3.1-0.6
	c0.8,4.2,1.6,8.4,2.4,12.5c0.3,0.3,0.5,0.6,0.8,0.9C154.5,255.4,153.5,255,152.6,255.1L152.6,255.1z"/>
<path class="st0" d="M18.5,81.2c0.1-0.7,0.1-1.3,0.2-2.2c4.7,1.9,9,3.8,13.5,5.6c-0.3,0.6-0.6,1.2-0.8,1.6c-4-1.5-7.8-3-11.7-4.5
	c0,0,0,0,0,0c-0.1-0.1-0.2-0.3-0.3-0.4C19.1,81.3,18.8,81.3,18.5,81.2z"/>
<path class="st0" d="M217.3,209.6c-1.1-1.1-2.2-2.2-3.4-3.5c0.2-0.2,0.6-0.7,1.1-1.3c0.9,0.8,1.7,1.5,2.5,2.2
	c0.5,0.4,1.1,0.6,1.6,0.9l0,0c0,0.2,0,0.5,0.2,0.7c2,1.8,4,3.7,6,5.5c0.1,0.1,0.4,0.1,0.5,0.2c-1.2,1.8-1.2,1.7-2.8,0.3
	C221.1,212.8,219.2,211.2,217.3,209.6C217.3,209.6,217.3,209.6,217.3,209.6z"/>
<path class="st0" d="M178,16.5c0.6,0.2,1.3,0.3,2,0.5c-1.8,4.5-3.6,8.8-5.4,13.1c-0.2,0-0.3,0.1-0.5,0.1c-0.5-0.2-1.1-0.4-1.4-0.5
	C174.5,25.2,176.2,20.8,178,16.5C178,16.5,178,16.5,178,16.5z"/>
<path class="st0" d="M12.3,97.1c0.2-0.7,0.4-1.4,0.6-2.1c0,0,0.1,0,0.1,0l0.1,0c0.4,0.2,0.8,0.5,1.3,0.6c4,1.2,8,2.4,12.1,3.7
	c-0.2,0.6-0.5,1.2-0.7,1.8c-4.5-1.3-8.9-2.6-13.2-3.9C12.6,97.1,12.5,97.1,12.3,97.1z"/>
<path class="st0" d="M207,33.7c-1.6,2-3.2,4-4.7,6c-0.2,0.2-0.1,0.6-0.2,0.9c-0.1,0.1-0.1,0.2-0.2,0.3c-0.4,0.2-0.8,0.4-1.1,0.7
	c-0.8,0.9-1.5,1.8-2.2,2.8c-0.6-0.4-1-0.7-1.5-1.1c2.7-3.4,5.3-6.7,7.9-10.1c0.3-0.4,0.3-1,0.5-1.5c0,0,0,0,0,0
	c0.6,0.5,1.2,1,1.8,1.5C207.2,33.3,207.1,33.5,207,33.7z"/>
<path class="st0" d="M56.1,33.2c0.5-0.3,1-0.7,1.5-1.1c2.9,3.8,5.7,7.6,8.6,11.5c-0.6,0.4-1,0.8-1.5,1.1C61.8,40.8,59,37,56.1,33.2z
	"/>
<path class="st0" d="M253.9,157.7c-0.1,0.5-0.2,1-0.3,1.5c-0.2,0-0.4,0-0.7,0c-4.5-0.9-8.9-1.8-13.5-2.8c0.1-0.6,0.2-1.2,0.4-1.9
	c4.6,1,9.2,1.9,13.8,2.9C253.7,157.5,253.8,157.6,253.9,157.7z"/>
<path class="st0" d="M226.4,198.4c0.1,0.4,0.2,0.9,0.4,1.1c2.2,1.7,4.4,3.3,6.7,5.1c-0.4,0.5-0.8,1-1.2,1.5
	c-0.2-0.1-0.4-0.2-0.6-0.3c-2.3-1.7-4.5-3.4-6.8-5.1c-0.2-0.2-0.3-0.3-0.5-0.5c-1.2-0.9-2.4-1.8-3.6-2.8c0.3-0.4,0.7-0.8,1.1-1.4
	c1,0.8,2,1.5,3,2.2C225.4,198.4,226,198.3,226.4,198.4L226.4,198.4z"/>
<path class="st0" d="M51.7,227.2c0.4-0.3,0.8-0.6,1.2-1c2.6-3.2,5.3-6.3,8-9.7c0.5,0.5,1,0.9,1.4,1.3c-3,3.5-5.8,6.9-8.7,10.4
	c-0.2,0.1-0.5,0.2-0.7,0.3c-0.4-0.3-0.8-0.6-1.2-1C51.7,227.5,51.7,227.4,51.7,227.2z"/>
<path class="st0" d="M222.2,60.1c0,0.1,0,0.1,0.1,0.2c-0.1,0.1-0.2,0.1-0.3,0.2c-0.3,0-0.7-0.2-0.9-0.1c-0.7,0.5-1.4,1-2.1,1.6
	c-1.1,1-1.8,0.7-2.3-0.6c3.7-2.9,7.4-5.8,11.2-8.8c0.4,0.5,0.8,1,1.1,1.5c-2.3,1.8-4.5,3.6-6.7,5.4
	C222.3,59.7,222.3,59.9,222.2,60.1z"/>
<path class="st0" d="M229.4,80.4c-0.3-0.7-0.6-1.4-0.9-2.2l0,0c0.4,0,0.8,0,1.1-0.1c3.8-2,7.7-4,11.5-6c0.2,0.4,0.5,0.9,0.7,1.4
	c0,0.1,0,0.2,0,0.3c-2.2,1.2-4.4,2.3-6.5,3.5c-0.5,0.2-0.8,0.6-1.3,0.9C232.5,78.9,230.9,79.6,229.4,80.4z"/>
<path class="st0" d="M51.2,37.9c0.3-0.5,0.4-1.1,0.8-1.5c0.2-0.1,1,0.2,1.3,0.5c2.9,3.1,5.7,6.3,8.7,9.6c-0.5,0.5-1,1-1.6,1.5
	c-0.2-0.4-0.3-0.7-0.6-1c-2.4-2.6-4.7-5.3-7.1-7.9c-0.1-0.1-0.4-0.2-0.6-0.3c0,0,0,0,0,0c-0.1-0.2-0.2-0.5-0.3-0.7
	C51.7,38.1,51.5,38,51.2,37.9z"/>
<path class="st0" d="M245.3,183.9c-0.3,0.7-0.6,1.4-0.9,2.2c-2.4-1.2-4.7-2.3-7-3.4c-0.5-0.2-1-0.3-1.5-0.5
	c-0.1-0.1-0.1-0.1-0.2-0.1c-1.3-0.7-2.6-1.3-4-2c-0.1-0.1-0.2-0.2-0.3-0.3c0.3-0.6,0.6-1.1,0.9-1.8c3.8,1.9,7.6,3.7,11.4,5.6
	C244.2,183.9,244.8,183.9,245.3,183.9L245.3,183.9z"/>
<path class="st0" d="M7.7,130.8c2.1,0.1,4.1,0.1,6.2,0.2c2.3,0.1,2.3,0.1,2.9-1.8c0,0.6,0,1.2,0,1.9c1.6,0,3.1,0,4.7,0
	c0,1,0,1.9,0,2.4c-0.4-0.1-0.8-0.5-1.3-0.5c-4.1-0.1-8.2-0.2-12.4-0.3c-0.2,0-0.3-0.1-0.5-0.1c0-0.6,0-1.2,0.1-1.8
	C7.4,130.8,7.6,130.8,7.7,130.8z"/>
<path class="st0" d="M202.2,217.6c0.4-0.5,0.8-1,1.2-1.4c1.8,0.8,3.4,1.5,5,2.3l0,0c0.3,0.3,0.6,0.7,1,1c1.3,0.8,2.7,1.6,4,2.4
	c0.2,0,0.4,0.1,0.6,0.1c0.4,0.9,0.8,1.8,1.2,2.8c-0.1,0.1-0.2,0.2-0.3,0.2c-1.8-1.1-3.7-2.1-5.5-3.3c-1.1-0.8-2.4-1.2-3.5-2
	C204.8,218.9,203.5,218.3,202.2,217.6L202.2,217.6z"/>
<path class="st0" d="M86.6,31.3c-0.2-2.6-0.8-3.3-3.4-4c-1.1-0.3-2.3-0.4-3.4-0.8c-2.5-0.8-3.6-3.6-2.3-5.7c0.6,2.9,1.3,3.7,4.3,4.3
	c1.2,0.3,2.5,0.5,3.7,0.9C87.9,27,88.4,29.8,86.6,31.3z"/>
<path class="st0" d="M223.8,71.1c-0.5-2-0.1-3.1,1.8-4.4c2.2-1.5,4.5-3,6.8-4.4c0.6-0.4,1.2-0.8,2-1.3c0.3,0.5,0.6,1,1,1.6
	c-3.2,2.1-6.3,4-9.3,6.2c-0.8,0.5-1.2,1.5-1.8,2.3C224.1,71.1,223.9,71.1,223.8,71.1z"/>
<path class="st0" d="M226.3,189.2c1.6-1.6,2.8-1.9,4.7-0.8c2.8,1.6,5.5,3.3,8.3,5c1.4,0.9,0.4,1.6-0.1,2.1
	c-3.6-2.2-7.1-4.3-10.7-6.3c-0.5-0.3-1.3,0.1-2,0.2C226.4,189.3,226.3,189.3,226.3,189.2z"/>
<path class="st0" d="M197.8,220.6c2.2-0.7,3.2-0.4,4.7,1.6c2.1,2.7,4.1,5.5,6.2,8.4c-0.5,0.4-1,0.7-1.6,1.1
	c-2.3-3.2-4.5-6.2-6.8-9.2c-0.6-0.8-1.3-1.7-2.5-1.4C197.8,220.9,197.8,220.7,197.8,220.6z"/>
<path class="st0" d="M62.5,234.6c2.3-1.5,2.1-3.5,1.4-5.7c-0.4-1.2-0.8-2.4-1-3.7c-0.3-2.3,1.6-4.1,3.9-3.6
	c-2.9,1.7-1.9,3.9-1.3,6.3c0.4,1.3,0.7,2.8,0.5,4.1C65.8,233.8,64.3,234.7,62.5,234.6z"/>
<path class="st0" d="M242.1,120.5c1.8,0.7,2.9,0.4,4-1.1c0.9-1.2,1.5-2.5,2.4-3.7c1.5-2.2,4.1-2.5,6.3-0.5c-3.8-0.9-4.8,1.8-6.2,4
	c-0.5,0.9-1.1,1.8-1.9,2.4c-1.2,1.1-3.6,1.1-4.7-0.6C242.1,120.9,242.1,120.7,242.1,120.5z"/>
<path class="st0" d="M128.8,21.2c0.2-0.5,0.7-1,0.7-1.4c0-3.3-0.1-6.6-0.3-10c0-0.6-0.7-1.2-1.2-1.9c2,0.5,2.8,2.2,3.4,3.8
	c1.3,3.6,0.5,7.5-2.1,9.6C129.2,21.3,129,21.2,128.8,21.2z"/>
<path class="st0" d="M47.2,45.3c-1.2-0.4-2.4-0.9-3.5-1.3l0,0c1.7-1.8,1.7-1.8,4-0.9c1.6,0.6,3.3,1.3,4.9,1.9
	c0.4,0.2,0.9,0.2,1.4,0.3c0,0,0,0,0,0c0.1,0.1,0.2,0.2,0.3,0.3c0.2,0.1,0.4,0.2,0.6,0.3c0.3,0.7,0.6,1.4,1.1,2.5
	c-2.8-1.1-5.4-2-7.9-3C47.8,45.3,47.5,45.3,47.2,45.3z"/>
<path class="st0" d="M29.4,175.8c-1.1,0.2-2.2,0.2-3.1,0.6c-1.9,0.7-3.8,1.5-5.5,2.4c-1.1,0.6-1.8,1.7-2.7,2.5
	c-0.2,0.1-0.4,0.2-0.6,0.2c1.4-5.5,7.7-8.7,12.4-6.1C29.6,175.5,29.5,175.7,29.4,175.8z"/>
<path class="st0" d="M162.1,250.1c0.5,0.9,1,1.7,1.6,2.7c-1.1,0.7-1.8,0.5-2.6-0.5c-1.6-2.2-3.5-4.1-5-6.3c-0.5-0.7-0.3-1.8-0.3-2.7
	c0.2,0,0.3-0.1,0.5-0.1c1.8,2.2,3.5,4.4,5.3,6.6C161.7,249.8,161.9,249.9,162.1,250.1z"/>
<path class="st0" d="M19.4,185.1c4,0.1,7.4-1.9,10.7-3.8c0.5-0.3,0.9-0.9,1.3-1.4c0.1,0.1,0.2,0.1,0.4,0.2
	c-1.5,4.7-7.1,7.4-11.6,5.6C19.9,185.6,19.7,185.3,19.4,185.1z"/>
<path class="st0" d="M17.6,89.6c-0.9,0-1.8,0-2.8,0c0.1-1.1,0.4-1.9,1.9-2c2.7-0.1,5.4-0.6,8.2-0.7c0.7,0,1.5,1,2.1,1.9
	c-2.8,0.2-5.6,0.4-8.4,0.7C18.2,89.5,17.9,89.5,17.6,89.6z"/>
<path class="st0" d="M41.8,217.8c3.3-0.5,9.6-6.1,9.9-9c0.9,2.1,0.1,4.6-2.2,6.7C47.3,217.6,44.9,218.7,41.8,217.8z"/>
<path class="st0" d="M123.9,21.3c-3.4-2.9-4-8.7-1.2-12.1c0.4-0.4,0.9-0.7,1.4-1.1c0.1,0.1,0.1,0.1,0.2,0.2
	c-1.5,1.7-1.2,3.8-1.2,5.8c0.1,2.4-0.2,4.9,1.3,7.1C124.3,21.2,124.1,21.3,123.9,21.3z"/>
<path class="st0" d="M9.4,149.3c2.4-4.6,8.2-5.6,12.2-2c0,0.2,0,0.3-0.1,0.5c-0.5-0.2-1-0.6-1.5-0.5c-2.4,0.2-4.8,0.3-7.1,0.8
	c-1.2,0.2-2.3,1.1-3.5,1.8C9.4,149.7,9.4,149.5,9.4,149.3z"/>
<path class="st0" d="M184.5,230.8c4.2,1.5,6.4,6.2,5.1,10.2c-1.6-3.1-3.4-6.4-5.1-9.8C184.5,231.1,184.5,230.9,184.5,230.8z"/>
<path class="st0" d="M250.3,97.8c-3.3,0.7-6.6,1.5-9.8,2.2c-0.2,0.1-0.5,0.1-0.7,0.2c-0.1-0.1-0.3-0.3-0.4-0.4
	c2.5-3.3,7.3-4.3,11-2.3C250.3,97.5,250.3,97.7,250.3,97.8z"/>
<path class="st0" d="M230.5,56.4c0.6,2.2-0.3,4-2,5.3c-1.6,1.2-3.3,1.2-5,0.3c-0.3-0.2-0.5-0.4-0.8-0.6c0.1-0.1,0.2-0.2,0.3-0.3
	c0.6,0.1,1.4,0.5,1.8,0.3c2.2-1.2,4.4-2.4,5.3-5.1C230.3,56.4,230.4,56.4,230.5,56.4z"/>
<path class="st0" d="M172.5,240.7c-0.6,2.2,0.8,5.9,2.8,7.4c0,0.2,0,0.4,0,0.5c-2-0.2-3.6-1.2-4.3-3.2c-0.6-1.9-0.2-3.6,1.3-4.9
	C172.4,240.6,172.4,240.6,172.5,240.7z"/>
<path class="st0" d="M229.9,208.2c-2.8,2-6.6,0.1-7-3.4c0-0.4,0-0.9,0-1.3c0.2,0,0.3,0,0.5,0c1.2,2.2,3.1,3.5,5.3,4.4
	c0.1,0.1,0.2,0.2,0.3,0.2C229.4,208.1,229.7,208.1,229.9,208.2L229.9,208.2z"/>
<path class="st0" d="M204.3,42.1c2.7-1.3,4.8-4.1,5.1-6.8c1.1,1.6,1.2,3.6,0.1,5.2C208.4,42.1,206.5,42.7,204.3,42.1z"/>
<path class="st0" d="M98.3,12.9c1.9,0.2,3.3,1.3,3.9,3.2c0.5,1.7,0,3.5-1.5,4.6c-0.1,0-0.2-0.1-0.3-0.1c0.7-2.2-0.6-6.2-2.4-7.4
	C98.1,13.2,98.2,13,98.3,12.9z"/>
<path class="st0" d="M10.9,104.2c2-2.1,4.1-2.6,6.1-1.5c1.3,0.7,1.8,1.6,2.1,3.1c-2.4-1.5-4.9-2.1-7.6-1.6
	C11.3,104.2,11.1,104.2,10.9,104.2z"/>
<path class="st0" d="M16.4,127.8c-2.8-0.1-5.6-0.2-8.4-0.3c1-1.8,2.6-2.4,4.5-2.4C14.3,125.2,15.7,126.1,16.4,127.8z"/>
<path class="st0" d="M235.9,80.6c2.7-0.5,4.9-1.7,6.9-3.6c0.4,1.4-0.2,2.7-1.7,3.8c-1.6,1.2-3.3,1.2-5.2,0.1
	C235.9,80.8,235.9,80.7,235.9,80.6z"/>
<path class="st0" d="M235.3,185.1c2,2,4.4,3,7.4,3.4c-1.5,1.3-3.2,1.4-4.8,0.8c-1.9-0.7-2.9-2.1-2.9-4.2
	C235,185.1,235.2,185.1,235.3,185.1z"/>
<path class="st0" d="M223.4,203.4c-0.2,0-0.3,0-0.5,0c-1.8-0.5-3.6-1.1-5.5-1.7c1.4-1.6,1.8-1.7,3.5-0.5c1.8,1.3,2.6,1,3.5-1
	c0.2,0.2,0.3,0.3,0.5,0.5C224.4,201.5,223.9,202.5,223.4,203.4z"/>
<path class="st0" d="M47.8,204c0.6,0.5,1.2,0.9,1.8,1.4c-0.9,0.9-1.8,1.6-2.6,2.4c-0.9,1-1.8,1.4-2.6,0
	C45.6,206.5,46.7,205.3,47.8,204C47.8,204,47.8,204,47.8,204z"/>
<path class="st0" d="M19.7,106.3c1.2-1.8,3-1.1,4.9-1.1c0-0.5,0-0.9-0.1-1.3l0,0c0.1,0.7,0.5,1.5,0.3,2c-0.2,0.5-1.1,0.9-1.7,1
	c-1.1,0.2-2.2,0.1-3.3,0.1C19.7,106.8,19.7,106.5,19.7,106.3z"/>
<path class="st0" d="M99.7,21.2c0.1,0,0.2,0,0.3,0c0.2,0.1,0.4,0.2,0.6,0.2c2.3,0.4,2.5,2.3,3.1,4.1c-1.4,0.5-2-0.3-2.4-1.3
	c-0.4-1-0.4-2.2-1.8-2.4C99.6,21.6,99.7,21.4,99.7,21.2z"/>
<path class="st0" d="M231.1,82.9c0.6-0.1,1.2-0.1,1.7-0.3c1.7-0.6,1.9-1.2,1.6-3.3c0.4,0.4,0.8,0.7,1.3,1.1c0,0-0.1,0.1-0.1,0.1
	c-0.1,0.4-0.3,0.8-0.3,1.3c-0.1,1.1-0.4,2.1-1.5,2.5c-1.1,0.4-2-0.1-2.7-1C231,83.2,231.1,83.1,231.1,82.9z"/>
<path class="st0" d="M172.4,240c-1.4,0.1-2.3-0.7-2.9-1.9c-0.3-0.6-0.7-1.2-1.1-1.8c1.7-0.6,2.1-0.4,2.9,1.3
	c0.3,0.7,0.7,1.3,1.1,1.9C172.4,239.6,172.4,239.8,172.4,240z"/>
<path class="st0" d="M161,17.7c0.8-2.1,2.3-3.9,2.2-6.4c0.9,0.2,1.9,0.4,2.7,0.6c-0.5,0.4-1.2,0.8-1.6,1.4c-1,1.4-1.9,3-2.8,4.4
	C161.3,17.7,161.1,17.7,161,17.7z"/>
<path class="st0" d="M203.9,42.2c1.4,2.2-0.7,3.7-1.3,5.5c-1.3-1.4-1.3-1.6-0.3-3.2c0.4-0.7,0.7-1.5,1-2.2
	C203.6,42.2,203.7,42.2,203.9,42.2z"/>
<path class="st0" d="M234.4,184.8c-0.9,1.1-2,1.7-3.3,0.9c-1.3-0.8-1.2-2.1-0.7-3.4c0.8,1.6,2,2.3,3.7,2.2
	C234.2,184.6,234.3,184.7,234.4,184.8z"/>
<path class="st0" d="M124.3,247.5c0-0.1,0-0.3,0-0.4c0.5,0,1,0,1.5,0c2.5,0.1,2.5,0.1,3.4-2.2c0.1,0.1,0.3,0.3,0.4,0.4
	c-0.2,0.5-0.3,1-0.5,1.7c0.4,0.1,0.8,0.2,1.2,0.3c-0.1,0.2-0.2,0.6-0.3,0.5c-1.5-0.4-1.7,0.8-2.1,1.7c-0.6,1.4-1.2,2.7-1.8,4.1
	c0-0.1,0-0.2,0-0.3c0.6-1.8,1.3-3.7,2-5.6C126.7,247.6,125.5,247.5,124.3,247.5z"/>
<path class="st0" d="M134,248c0.2,2.4,0.4,4.9,0.7,7.3c0.1,0.5,0.6,1,0.9,1.5c-0.7,0-1.7,0.1-2.6,0.1c0.2-0.6,0.5-1.1,0.5-1.6
	c0.1-2.5,0.2-4.9,0.3-7.4C133.8,248,133.9,248,134,248z"/>
<path class="st0" d="M79.1,238.3c-1,1.4-2,2.7-2.9,4.1c-0.6,0.9-1.2,1.2-2.1,0.4c1.6-1.6,3.1-3.2,4.7-4.8
	C78.9,238.1,79,238.2,79.1,238.3z"/>
<path class="st0" d="M110.1,9.4c0.7-0.1,1.5-0.2,2.5-0.4c-0.5,2.4-0.9,4.5-1.4,6.6c-0.1,0-0.2,0-0.3-0.1c0-1.9,0-3.8,0-5.7
	c0-0.1-0.5-0.1-0.8-0.2C110.1,9.6,110.1,9.5,110.1,9.4z"/>
<path class="st0" d="M95.8,242c0.4-1.6,0.9-3.3,1.4-5.1c0.6,0.2,1.3,0.5,2.1,0.7c-2.3,0.8-2.2,3.2-3.2,4.7
	C96.1,242.3,96,242.1,95.8,242z"/>
<path class="st0" d="M17.3,166.2c-1.5,0.7-3.1,1.3-4.8,2.1c-0.2-0.6-0.4-1.2-0.5-1.6c1.8-0.3,3.5-0.5,5.3-0.8
	C17.3,166,17.3,166.1,17.3,166.2z"/>
<path class="st0" d="M235.1,70.3c-2,1.2-3.9,2.4-5.9,3.5c-1.1,0.6-2.3,0.8-3.3-0.3c2.9,0.9,4.7-1.2,6.8-2.3c0.7-0.4,1.4-0.9,2.1-1.3
	C234.8,70.1,234.9,70.2,235.1,70.3z"/>
<path class="st0" d="M246,170c0.9,0.5,1.8,1.1,2.7,1.5c0.4,0.2,1,0,1.6,0c0-0.1,0,0,0,0.1c-0.5,2.1-0.7,2.1-2.3,0.7
	c-0.8-0.7-1.6-1.3-2.3-2C245.7,170.2,245.9,170.1,246,170z"/>
<path class="st0" d="M140.5,247.1c-1.1-1.4,0.5-3.8-2.3-4.9c1.4-0.1,2.5-0.1,3.8-0.2C139.9,243.4,141.3,245.5,140.5,247.1z"/>
<path class="st0" d="M242.1,120.5c0,0.2-0.1,0.4-0.1,0.6c-0.3-1.1-0.6-2.2-0.9-3.3c-0.1-0.5-0.3-1.1-0.4-1.7
	c0.8-0.1,1.8-0.2,3.1-0.4C241.7,117.3,241.2,118.6,242.1,120.5z"/>
<path class="st0" d="M199.4,231c1.2,1.2,2.3,2.5,3.5,3.8c-0.3,0.2-0.8,0.6-1.3,0.9c-0.9-1.5-1.7-3-2.5-4.4
	C199.2,231.2,199.3,231.1,199.4,231z"/>
<path class="st0" d="M23,171c1.6-0.6,3.2-1.2,4.9-1.9c0.3,0.7,0.5,1.4,0.6,1.8c-0.6-0.1-1.3-0.4-1.9-0.3c-1.1,0.1-2.2,0.5-3.3,0.7
	C23.3,171.2,23.1,171.1,23,171z"/>
<path class="st0" d="M235.1,70.3c-0.1-0.1-0.3-0.3-0.4-0.4c1.1-0.9,2.3-1.8,3.5-2.8c0.3,0.4,0.7,0.9,1,1.3
	C237.7,69,236.4,69.7,235.1,70.3z"/>
<path class="st0" d="M239.3,99.7c0.1,0.1,0.3,0.3,0.4,0.4c-1.7,1.8-1.5,3.7,0.6,7c-0.4-0.2-0.8-0.2-1-0.5
	C237.8,104.8,237.9,101.7,239.3,99.7z"/>
<path class="st0" d="M232.1,198c1.4,0.7,2.7,1.3,4.2,2c-0.2,0.4-0.3,0.8-0.6,1.4c-1.4-1.1-2.7-2.1-4.1-3
	C231.9,198.3,232,198.1,232.1,198z"/>
<path class="st0" d="M31.3,58.7c0.6,0.7,1.1,1.5,1.7,2.2c0.4,0.4,0.8,0.7,1.2,1c-0.1,0.1-0.3,0.2-0.4,0.4c-1.2-0.6-2.5-1.2-3.7-1.8
	c0,0-0.1-0.1-0.1-0.1C30.4,59.9,30.9,59.3,31.3,58.7C31.3,58.8,31.3,58.7,31.3,58.7z"/>
<path class="st0" d="M69.3,28.9c-0.8-1-1.7-2.1-2.6-3.2c0.5-0.3,1.1-0.7,1.4-0.9c0.5,1.2,1,2.4,1.6,3.6
	C69.6,28.7,69.5,28.8,69.3,28.9z"/>
<path class="st0" d="M210.5,213.7c0.3,0.5,0.5,0.9,0.9,1.5c0.3-0.3,0.6-0.5,0.9-0.8c0.1,0.1,0.2,0.2,0.2,0.2c-1.4,1.7,0,3.1,0.5,4.7
	c0.1,0.3,0.2,0.6,0.2,0.8c-0.1,0.1-0.1,0.1-0.2,0.2c-0.4-0.9-0.8-1.9-1.3-2.8c-0.2-0.4-0.6-0.7-0.9-1.1c0-0.1-0.1-0.1-0.1-0.2
	c-0.1-0.7-0.3-1.5-0.4-2.2C210.3,213.9,210.4,213.8,210.5,213.7z"/>
<path class="st0" d="M88.5,243.9c-0.4,1.6-0.9,3.1-1.3,4.8c-0.4-0.1-0.9-0.3-1.3-0.4c0.7-1.5,1.4-2.9,2.1-4.3
	C88.1,243.9,88.3,243.9,88.5,243.9z"/>
<path class="st0" d="M23.3,91.6c1.7,0.6,3.4,1.1,5.3,1.7c-0.2,0.4-0.4,1-0.6,1.5c-1.1-1.7-3.1-1.8-4.6-2.8
	C23.3,91.9,23.3,91.7,23.3,91.6z"/>
<path class="st0" d="M255.9,117.3c0,1.1,0,2.2,0,3.4c-0.8,0.1-1.7,0.2-2.3,0.3C254.3,119.9,255.1,118.6,255.9,117.3z"/>
<path class="st0" d="M255,148.8c0.1,0,0.3-0.1,0.4-0.1c-0.1,1.6-0.3,3.2-0.4,4.9c-0.6-0.1-1.2-0.1-2-0.2
	C254.6,152.2,255,150.6,255,148.8z"/>
<path class="st0" d="M7.9,140.6c-0.1,0.1-0.2,0.1-0.3,0.2c-0.2-1.6-0.4-3.2-0.6-4.9c0.6,0,1.2-0.1,2-0.1
	C7.7,137.3,7.9,139,7.9,140.6z"/>
<path class="st0" d="M54.9,45.8c-0.2-0.1-0.4-0.2-0.6-0.3c-0.1-0.1-0.2-0.2-0.3-0.3c0,0,0,0,0,0c-0.7-1.8-1.4-3.7-2.1-5.5
	c-0.2-0.6-0.4-1.2-0.6-1.8c0.2,0.1,0.5,0.2,0.7,0.3c0.1,0.2,0.2,0.5,0.3,0.7c0,0,0,0,0,0C53.1,41.2,54,43.5,54.9,45.8z"/>
<path class="st0" d="M160.3,243.5c-0.5-1.4-0.9-2.8-1.4-4.3c0.7-0.1,1.5-0.3,1.9-0.4c-0.2,0.6-0.5,1.2-0.5,1.8
	c0,0.9,0.2,1.7,0.3,2.6C160.6,243.3,160.5,243.4,160.3,243.5z"/>
<path class="st0" d="M116.6,241.5c-0.1,0.1-0.1,0.2-0.2,0.3c-1.4,0-2.8-0.4-4.2,1c0.1-0.9,0.2-1.6,0.3-2.2
	C113.9,240.9,115.3,241.2,116.6,241.5z"/>
<path class="st0" d="M59,230.3c0.2,1.2,0.5,2.5,0.7,3.8c-0.7-0.6-1.5-1.3-2.3-2C57.9,231.5,58.5,230.9,59,230.3
	C59,230.3,59,230.3,59,230.3z"/>
<path class="st0" d="M67.6,37.8c0.8,1,1.6,2,2.5,3.1c-0.5,0.2-1.1,0.5-1.7,0.7l0,0c-0.4-1.2-0.8-2.3-1.2-3.5
	C67.4,38,67.5,37.9,67.6,37.8z"/>
<path class="st0" d="M22.7,73.2c-0.2,0-0.4,0-0.6,0c0.7-1.5,1.5-2.9,2.3-4.5c0.5,0.3,1,0.5,1.6,0.8C24.2,70.3,23.1,71.5,22.7,73.2z"
	/>
<path class="st0" d="M35.2,70.8c1.2,0.7,2.4,1.3,3.7,2c-0.2,0.3-0.4,0.6-0.7,1.1c-1.2-1-2.3-1.9-3.3-2.8C34.9,71,35,70.9,35.2,70.8z
	"/>
<path class="st0" d="M17.7,122c1.3,0.4,2.7,0.9,4.2,1.3c0,0.5-0.1,1.2-0.1,2.2c-0.8-2.1-2.7-2.2-4-3.1
	C17.7,122.3,17.7,122.2,17.7,122z"/>
<path class="st0" d="M82.3,17.9c0.2,0.6,0.5,1.3,0.7,1.8c-1.4-0.2-2.7-0.4-4.3-0.7C80,18.6,81,18.3,82.3,17.9z"/>
<path class="st0" d="M166.1,27.2c0.1,0,0.3-0.1,0.4-0.1c1.5,0.2,3.1,0.4,4.7,0.6c-0.1,0.2-0.2,0.8-0.4,1.3
	C169.2,28.4,167.6,27.8,166.1,27.2z"/>
<path class="st0" d="M53.7,54c-0.3-0.7-0.5-1.4-0.9-2c-0.3-0.6-0.8-1.1-1.3-1.7c0.1-0.1,0.2-0.2,0.3-0.2c1,1,2.1,1.9,3.2,3
	C54.5,53.4,54.1,53.7,53.7,54L53.7,54z"/>
<path class="st0" d="M158.1,13.3c-0.2-1-0.3-2-0.5-3c0.7,0.1,1.4,0.2,2.4,0.3C159.3,11.6,158.7,12.5,158.1,13.3z"/>
<path class="st0" d="M129.5,245.3c-0.1-0.1-0.3-0.3-0.4-0.4c0-0.8-0.1-1.6-0.1-2.5c0.5,0,1.5,0.1,2.1,0.1
	C130.6,243.5,130.1,244.4,129.5,245.3z"/>
<path class="st0" d="M255.9,139.4c0.1,0,0.3,0,0.4-0.1c0,1.5,0,3.1,0,4.7c-0.6,0-1.2,0-1.9,0C255.7,142.6,256.1,141.1,255.9,139.4z"
	/>
<path class="st0" d="M174.1,30.2c0.2,0,0.3-0.1,0.5-0.1c1.4,0.4,2.7,1.1,4.4,0.1c-0.3,0.8-0.6,1.5-0.8,2
	C176.7,31.5,175.4,30.8,174.1,30.2z"/>
<path class="st0" d="M246.8,126.4c-0.6-0.2-1.2-0.5-1.8-0.7c0-0.1,0-0.3,0-0.4c0.5,0.1,1,0.2,1.7,0.3c0-0.5-0.1-0.8-0.1-1.2
	c0.6,1.4,1.8,2.1,3.3,2.2c-0.1,0.1-0.1,0.3-0.2,0.4c-0.8-0.2-1.5-0.4-2.3-0.6C247.2,126.4,247,126.4,246.8,126.4z"/>
<path class="st0" d="M17.7,122c0,0.1,0,0.3,0,0.4c-0.2,0.4-0.3,0.7-0.6,1.3c-0.8-0.6-0.1-2.3-1.5-2.3c0.1-0.1,0.1-0.2,0.2-0.3
	c0.9,0.5,1.2,0.1,1.3-0.8c0-0.8,0.2-1.7,0.3-2.5c0.1,0,0.2,0,0.3,0c-0.1,0.9-0.2,1.8-0.2,2.7C17.4,121,17.6,121.5,17.7,122z"/>
<path class="st0" d="M160.3,243.5c0.1-0.1,0.3-0.2,0.4-0.4c0.5,2.3,0.9,4.6,1.4,6.9c-0.2-0.1-0.4-0.3-0.6-0.4
	C161.1,247.6,160.7,245.6,160.3,243.5z"/>
<path class="st0" d="M252.7,100.3c0.2,1.1,0.3,2.1,0.5,3.3c-0.6,0.2-1.4,0.4-2.1,0.6C251.6,103,252.1,101.8,252.7,100.3z"/>
<path class="st0" d="M136.8,17.5c0.1-0.2,0.1-0.5,0.2-0.7c1.1-0.1,2.3-0.3,3.5-0.4c0,0.4-0.1,1-0.1,1.8
	C139.2,17.2,138,17.2,136.8,17.5z"/>
<path class="st0" d="M241.3,147c0.1,0,0.2,0,0.2,0c0,1.5,0,3,0,4.6c-0.2,0-0.6,0-1.1,0C240.7,150.1,241,148.5,241.3,147z"/>
<path class="st0" d="M137.3,8c0-0.1,0-0.2,0-0.3c1.5,0,3,0,4.6,0c0,0.5,0,1.2,0,2.1C140.8,7.6,138.8,8.5,137.3,8z"/>
<path class="st0" d="M88.5,243.9c-0.2,0-0.4,0-0.6,0c0.8-1.9,1.5-3.8,2.3-5.7c0.1,0.4,0.3,0.8,0.4,1.3c-0.3,0.3-0.6,0.5-0.8,0.8
	C89.4,241.5,89,242.7,88.5,243.9z"/>
<path class="st0" d="M67.6,37.8c-0.1,0.1-0.2,0.3-0.4,0.4c-1.1-1.7-2.2-3.5-3.3-5.2c0.1-0.1,0.3-0.2,0.4-0.2
	C65.4,34.4,66.5,36.1,67.6,37.8z"/>
<path class="st0" d="M35.9,74.9c0.5,0.3,1,0.5,1.5,0.8c-0.6,0.9-1.2,1.8-1.9,2.8C35.6,77.2,35.7,76.2,35.9,74.9z"/>
<path class="st0" d="M81.7,31.8c1.2,0.1,2.3,0.3,3.4,0.4c-0.2,1.2-2.4-0.1-2.4,1.8C82.5,33.4,82.1,32.7,81.7,31.8z"/>
<path class="st0" d="M23,171c0.1,0.1,0.3,0.2,0.4,0.4c-2,0.6-4,1.2-5.9,1.7c0.1-0.2,0.2-0.4,0.3-0.7C19.5,171.9,21.3,171.5,23,171z"
	/>
<path class="st0" d="M184.1,245.4c-0.2-0.4-0.5-0.9-0.8-1.4c1.4,0,2.7,0,4,0c0,0.1,0,0.1,0.1,0.2C186.3,244.5,185.2,245,184.1,245.4
	z"/>
<path class="st0" d="M95.8,242c0.1,0.1,0.2,0.2,0.3,0.4c-0.7,1.7-1.4,3.4-2.1,5c-0.2-0.2-0.3-0.5-0.5-0.7c0.2-0.3,0.6-0.5,0.7-0.8
	C94.9,244.6,95.4,243.3,95.8,242z"/>
<path class="st0" d="M41.9,202.5c1.1-0.5,2.3-1.1,3.6-1.7c0.1,0.2,0.4,0.5,0.7,1c-1.6,0.3-2.9,0.6-4.3,0.9
	C41.9,202.7,41.9,202.6,41.9,202.5z"/>
<path class="st0" d="M210.5,213.7c-0.1,0.1-0.2,0.2-0.3,0.3c-0.6-0.8-1.1-1.6-1.8-2.4c0.3-0.2,0.9-0.7,1.4-1.1l0,0
	C210.1,211.5,210.3,212.6,210.5,213.7z"/>
<path class="st0" d="M37.5,213.8c0.6-0.6,1.2-1.2,1.8-1.8c0,0,0,0,0,0c0,1.2,0,2.5,0,3.7C38.6,215,38,214.4,37.5,213.8
	C37.5,213.7,37.5,213.8,37.5,213.8z"/>
<path class="st0" d="M190,34.3c-0.7,0.9-1.5,1.8-2.3,2.8c-0.3-0.3-0.7-0.7-1.1-1.1c0,0,0,0,0,0c1-0.6,2-1.2,2.9-1.8
	C189.7,34.2,189.8,34.3,190,34.3z"/>
<path class="st0" d="M175.4,15.1c-0.2,0.6-0.3,1.1-0.5,1.5c-0.9-0.7-1.7-1.4-2.8-2.3C173.3,14.6,174.3,14.8,175.4,15.1z"/>
<path class="st0" d="M221.3,219.5c-0.4-0.4-0.8-0.7-1.2-1.1c1-0.5,1.9-0.9,3.3-1.6C222.5,217.9,221.9,218.6,221.3,219.5z"/>
<path class="st0" d="M225.8,190.2c-0.6,1.9-0.3,3.5,1.8,4.9C225,194.5,224.3,192.1,225.8,190.2z"/>
<path class="st0" d="M184.5,230.8c0,0.2,0,0.3,0,0.5c-2-0.9-3.7,0.1-5.6,1.3C179.9,230.7,182.3,230,184.5,230.8z"/>
<path class="st0" d="M167.7,23c0.1-0.2,0.2-0.4,0.3-0.6c1,0.2,2,0.4,3.1,0.6c-0.1,0.3-0.3,1-0.4,1.3C169.6,23.9,168.7,23.4,167.7,23
	z"/>
<path class="st0" d="M245,125.2c0,0.1,0,0.3,0,0.4c-0.5-0.1-1.1-0.2-1.6-0.1c-0.4,0.1-0.8,0.4-1.3,0.6c0-0.7,0-1.7,0-2.2
	C243,124.3,244,124.7,245,125.2z"/>
<path class="st0" d="M69.4,225.9c-0.2-1.1-0.4-2.1-0.6-3.7c0.6,1,1,1.8,1.5,2.5c0.2-0.1,0.4-0.2,0.6-0.2
	C70.3,224.9,69.8,225.4,69.4,225.9L69.4,225.9z"/>
<path class="st0" d="M41.9,202.5c0,0.1,0,0.2,0,0.3c0,0.6,0.1,1.1,0.1,1.7c-0.7-0.3-1.3-0.6-1.9-0.8c0-0.2,0-0.4,0-0.6
	c0-0.4,0-0.8,0-1.2c0,0,0,0,0,0C40.7,202.1,41.3,202.3,41.9,202.5z"/>
<path class="st0" d="M196.7,221.6c-1.5,1.6-1.6,3.3-0.1,5.4c-2.2-1.6-2.1-4-0.1-5.6C196.6,221.4,196.7,221.5,196.7,221.6z"/>
<path class="st0" d="M190,34.3c-0.2,0-0.3,0-0.5-0.1c0.3-0.3,0.5-0.6,0.9-0.9c-0.3-0.2-0.6-0.5-1.2-1c1.3,0,2.3,0.8,3-0.2
	c0.1,0.1,0.2,0.2,0.2,0.3c-0.1,0.4-0.3,0.8-0.4,1.2c-0.1,0.1-0.1,0.1-0.2,0.2C191.2,33.9,190.6,34.1,190,34.3z"/>
<path class="st0" d="M252.9,159.2c0.2,0,0.4,0,0.7,0c-0.1,0.9-0.3,1.7-0.4,2.7c-0.8-0.2-1.4-0.3-2.5-0.5
	C252.1,160.9,253.2,160.6,252.9,159.2z"/>
<path class="st0" d="M20,135c0.6,0,1.1-0.1,1.7-0.1c-0.1,1-0.2,1.8-0.3,2.8C21,136.9,20.5,136,20,135z"/>
<path class="st0" d="M69.3,28.9c0.1-0.1,0.3-0.3,0.4-0.4c0.9,1.4,1.8,2.9,2.6,4.3c-0.1,0.1-0.2,0.2-0.4,0.2
	C71.1,31.7,70.2,30.3,69.3,28.9z"/>
<path class="st0" d="M12.3,97.1c0.1,0,0.2,0,0.4,0c-0.2,1.1-0.3,2.2,0.9,3c-0.7-0.2-1.3-0.4-2.2-0.6C11.7,98.7,12,97.9,12.3,97.1z"
	/>
<path class="st0" d="M65.7,236.1c0.5,0.8,1,1.6,1.7,2.6c-1-0.4-1.7-0.7-2.5-1.1C65.2,237.1,65.5,236.5,65.7,236.1z"/>
<path class="st0" d="M86.4,16.2c0,0.1,0,0.2,0,0.4c-1.1,0.5-1.9,1.2-1.9,2.6c-0.3-0.7-0.5-1.3-0.8-2.1
	C84.7,16.7,85.6,16.4,86.4,16.2z"/>
<path class="st0" d="M154.9,254.2c-0.3-0.3-0.5-0.6-0.8-0.9c0.2-0.3,0.5-0.6,0.5-0.9c0.2-1.1,0.3-2.2,0.5-3.4c0.2,0,0.3,0,0.5,0.1
	C155.4,250.8,155.1,252.5,154.9,254.2z"/>
<path class="st0" d="M23.3,91.6c0,0.2,0,0.3,0,0.5c-1.9-0.8-3.8-1.7-5.7-2.5c0.3,0,0.6-0.1,0.9-0.1C20.1,90.2,21.7,90.9,23.3,91.6z"
	/>
<path class="st0" d="M212.3,208.3c-0.2,0.8-0.4,1.5-0.6,2.4c-0.4-0.3-0.8-0.7-1.3-1.1c0.6-0.5,1.1-1,1.7-1.5
	C212.1,208.2,212.2,208.2,212.3,208.3z"/>
<path class="st0" d="M71.7,226.4c0.2-0.5,0.3-1.1,0.5-1.6c0.9,0.6,1.6,1.2,2.6,1.9C73.6,226.6,72.7,226.5,71.7,226.4
	C71.7,226.4,71.7,226.4,71.7,226.4z"/>
<path class="st0" d="M40.1,203.1c0,0.2,0,0.4,0,0.6c-1.8,0.5-3.6,1-5.3,1.5c0-0.2,0-0.3,0-0.5C36.6,204.2,38.3,203.7,40.1,203.1z"/>
<path class="st0" d="M52.8,228.5c0.2-0.1,0.5-0.2,0.7-0.3c0.5,1.3,1.6,0.9,2.5,0.9l0,0c-0.2,0.5-0.5,1-0.8,1.6
	C54.3,229.9,53.6,229.2,52.8,228.5z"/>
<path class="st0" d="M30.6,77.3c-0.1,0-0.2,0-0.2-0.1c0.3-1,0.6-1.9,1-3c0.4,0.2,1,0.5,1.4,0.8C32,75.8,31.3,76.6,30.6,77.3z"/>
<path class="st0" d="M184.2,29.6C184.2,29.6,184.2,29.6,184.2,29.6c1.1,0.2,2.2,0.4,3.3,0.6l0,0c-0.2,0.6-0.5,1.1-0.6,1.5
	C185.9,30.9,185,30.2,184.2,29.6z"/>
<path class="st0" d="M245.9,147.6c0.1,0,0.3,0,0.4,0.1c0,1,0,2,0,3.2c-0.3,0-1-0.1-1.4-0.1C245.2,149.6,245.6,148.6,245.9,147.6z"/>
<path class="st0" d="M236.6,92.7c-0.4,0.2-1,0.4-1.5,0.7c-0.3-0.8-0.6-1.6-1-2.8C235.1,91.4,235.8,92,236.6,92.7z"/>
<path class="st0" d="M253.9,157.7c-0.1-0.1-0.2-0.2-0.3-0.3c-0.1-0.9-0.3-1.7-0.4-2.7c0.3,0,0.8,0.1,1.5,0.2
	C254.4,155.9,254.1,156.8,253.9,157.7z"/>
<path class="st0" d="M161,17.7c0.2,0,0.3,0,0.5,0c-0.9,1.5-1.7,3-2.6,4.5c-0.1-0.3-0.2-0.6-0.3-0.9c0.5-0.7,1.1-1.3,1.6-2
	C160.4,18.7,160.7,18.2,161,17.7z"/>
<path class="st0" d="M13.2,95.1c0,0-0.1,0-0.1,0s-0.1,0-0.1,0c0.1-0.7,0.3-1.4,0.4-2.2c0.4,0.1,0.8,0.1,1.1,0.2
	c0.4,0.1,0.7,0.3,0.8,0.3C14.6,93.9,13.9,94.5,13.2,95.1z"/>
<path class="st0" d="M123.9,21.3c0.2,0,0.4,0,0.5-0.1c1.4,0.9,2.9,0.8,4.3,0c0.2,0,0.4,0.1,0.6,0.1
	C127.5,22.7,125.7,22.7,123.9,21.3z"/>
<path class="st0" d="M11.2,119.2c0.2-0.2,0.4-0.4,0.6-0.5c0.3,0.3,0.5,0.7,0.8,0.8c1,0.6,2.1,1.1,3.2,1.6c-0.1,0.1-0.1,0.2-0.2,0.3
	C14.1,120.7,12.6,120,11.2,119.2z"/>
<path class="st0" d="M189.7,21.9c1.2,0.4,2,0.7,2.9,1.1c-0.2,0.5-0.5,1-0.7,1.4C191.2,23.6,190.6,22.9,189.7,21.9z"/>
<path class="st0" d="M71.6,229.3c0.6,0.8,1.1,1.4,1.6,2.1c-0.8-0.2-1.6-0.3-2.5-0.5C70.9,230.4,71.3,229.8,71.6,229.3z"/>
<path class="st0" d="M208.2,52.1c0.9,0.4,1.8,0.8,2.8,1.2c-0.3,0.3-0.6,0.7-1,1.1c-0.7-0.8-1.3-1.5-2-2.2
	C208.1,52.2,208.2,52.2,208.2,52.1z"/>
<path class="st0" d="M33.9,55.5c-0.1,0.9-0.2,1.8-0.3,2.6l0,0c-0.5-0.3-1-0.6-1.6-1c0.7-0.6,1.2-1.2,1.8-1.7
	C33.8,55.4,33.9,55.5,33.9,55.5z"/>
<path class="st0" d="M216.7,210.2c-0.2,0.7-0.4,1.5-0.7,2.3c-0.5-0.5-1-1-1.6-1.4C215.2,210.8,216,210.5,216.7,210.2L216.7,210.2z"
	/>
<path class="st0" d="M210.2,47.7c0-0.1,0-0.1,0.1-0.2c0.8,0.5,1.5,1,2.4,1.6c-0.4,0.4-0.7,0.8-1,1.1
	C211.2,49.4,210.7,48.5,210.2,47.7z"/>
<path class="st0" d="M218.8,44.9c-0.3-0.9-0.6-1.8-1-2.9c0.8,0.5,1.5,1,2.3,1.7C219.6,44.1,219.2,44.5,218.8,44.9
	C218.7,44.9,218.8,44.9,218.8,44.9z"/>
<path class="st0" d="M21.5,147.8c0-0.2,0-0.3,0.1-0.5c1.4,1.3,1.8,2.9,1.8,4.7c-0.1,0-0.2,0-0.4,0C22.5,150.6,22,149.2,21.5,147.8z"
	/>
<path class="st0" d="M51.7,227.2c0,0.1,0,0.2,0,0.3c-0.6-0.4-1.2-0.9-2-1.4c0.5-0.5,0.9-1,1.4-1.4l0,0
	C51.2,225.5,51.5,226.4,51.7,227.2z"/>
<path class="st0" d="M35.4,53.7c-0.1,0-0.2-0.1-0.2-0.2c0.4-0.6,0.8-1.2,1.3-2c0.5,0.6,1,1.1,1.5,1.6l0,0
	C37.2,53.3,36.3,53.5,35.4,53.7z"/>
<path class="st0" d="M140.8,253l-0.1,0c0,0-0.1,0-0.1,0c-0.1-1.9-0.2-3.8-0.3-5.6c0.2,0,0.3,0,0.5,0
	C140.8,249.2,140.8,251.1,140.8,253z"/>
<path class="st0" d="M232.1,198c-0.1,0.1-0.3,0.3-0.4,0.4c-1.2-0.8-2.4-1.6-3.6-2.3c0.1-0.1,0.2-0.3,0.2-0.4
	C229.6,196.5,230.8,197.2,232.1,198z"/>
<path class="st0" d="M35.2,70.8c-0.1,0.1-0.2,0.2-0.3,0.3c-1.1-0.8-2.3-1.6-3.4-2.3c0.1-0.1,0.2-0.3,0.3-0.4
	C32.8,69.2,34,70,35.2,70.8z"/>
<path class="st0" d="M25.3,196.7c-0.4-0.6-0.9-1.1-1.4-1.8c0.4-0.3,0.8-0.6,1.4-0.9c0.1,1,0.1,1.8,0.2,2.6
	C25.4,196.6,25.3,196.7,25.3,196.7z"/>
<path class="st0" d="M79.1,238.3c-0.1-0.1-0.2-0.2-0.3-0.3c0.9-1,1.9-2.1,2.8-3.1c0.1,0.1,0.1,0.1,0.2,0.2
	C80.9,236.1,80,237.2,79.1,238.3z"/>
<path class="st0" d="M246.8,126.4c0.2,0,0.4,0,0.6,0c0,1.3,0,2.5,0,3.8c-0.2,0.1-0.4,0.2-0.6,0.3
	C246.8,129.1,246.8,127.7,246.8,126.4z"/>
<path class="st0" d="M29.2,199.6c-0.5,0.4-1,0.8-1.6,1.2c-0.4-0.7-0.8-1.4-1.2-2.1C27.5,199,28.3,199.3,29.2,199.6L29.2,199.6z"/>
<path class="st0" d="M156.1,16.2c0.1,0.3,0.1,0.6,0.2,0.9c-0.6,0.9-1.3,1.8-1.9,2.6c-0.1,0-0.2-0.1-0.3-0.1
	C154.7,18.4,155.4,17.3,156.1,16.2z"/>
<path class="st0" d="M9.4,149.3c0,0.2,0,0.3,0.1,0.5c0,1.4,0,2.8,0,4.2c-0.1,0.1-0.2,0.2-0.3,0.4C8.8,152.7,8.3,151,9.4,149.3z"/>
<path class="st0" d="M234.4,184.8c-0.1-0.1-0.2-0.2-0.3-0.3c0.5-0.8,1.1-1.6,1.6-2.3c0.1,0,0.1,0,0.2,0.1c-0.2,1-0.4,2-0.6,2.9
	c-0.1,0-0.3,0-0.4,0C234.7,185,234.6,184.9,234.4,184.8z"/>
<path class="st0" d="M33.8,62.4c0.1-0.1,0.3-0.2,0.4-0.4c0.9,0.7,1.8,1.3,2.7,2c-0.1,0.1-0.1,0.1-0.2,0.2
	C35.8,63.6,34.8,63,33.8,62.4z"/>
<path class="st0" d="M172.4,240c0-0.2,0-0.4,0-0.6c0.9-0.1,1.7-0.2,2.6-0.3c0,0.1,0.1,0.2,0.1,0.3c-0.8,0.4-1.7,0.9-2.5,1.3
	c-0.1,0-0.2-0.1-0.2-0.2C172.4,240.3,172.4,240.2,172.4,240z"/>
<path class="st0" d="M198.6,230.6c-0.6-0.8-1.2-1.7-1.8-2.5c0.1-0.1,0.3-0.2,0.4-0.3c0.6,0.8,1.2,1.7,1.8,2.5
	C198.8,230.4,198.7,230.5,198.6,230.6z"/>
<path class="st0" d="M98.3,12.9c-0.1,0.1-0.2,0.2-0.3,0.4c-0.6,0-1.1-0.1-1.9-0.2C97.1,12.2,97.5,12.2,98.3,12.9z"/>
<path class="st0" d="M231.4,179.8c0.1,0.1,0.2,0.2,0.3,0.3c-0.3,0.6-0.6,1.2-0.8,1.9c-0.2-0.1-0.3-0.2-0.5-0.3
	C230.7,181.1,231.1,180.4,231.4,179.8z"/>
<path class="st0" d="M250.3,97.8c0-0.1,0-0.2,0-0.3c0.6,0.6,1.2,1.3,1.8,1.9c0,0.1-0.1,0.2-0.2,0.2
	C251.4,98.9,250.9,98.3,250.3,97.8z"/>
<path class="st0" d="M19.7,106.3c0,0.2,0,0.5,0.1,0.7c-0.2,0.5-0.4,0.9-0.6,1.4c0,0,0,0,0,0C19.2,107.6,18.1,106.6,19.7,106.3z"/>
<path class="st0" d="M7.7,130.8c-0.1,0-0.2,0-0.4,0c0.1-0.9,0.2-1.8,0.3-2.7C7.7,129,7.7,129.9,7.7,130.8z"/>
<path class="st0" d="M207,33.7c0.1-0.2,0.2-0.4,0.3-0.6c0.6,0.5,1.2,1,1.7,1.5c0,0,0,0,0,0C208.3,34.3,207.7,34,207,33.7z"/>
<path class="st0" d="M246,170c-0.1,0.1-0.3,0.2-0.4,0.4c-0.5-0.4-1.1-0.8-1.6-1.2c0.1-0.1,0.2-0.2,0.2-0.4
	C244.8,169.2,245.4,169.6,246,170z"/>
<path class="st0" d="M38.3,200c0.2-0.3,0.4-0.7,0.7-1c0.1,0.6,0.2,1.2,0.3,1.7c0,0,0,0,0,0C38.9,200.5,38.6,200.3,38.3,200z"/>
<path class="st0" d="M47.2,45.3c0.3,0,0.6,0,0.9,0c0.1,0.3,0.3,0.7,0.4,1c-0.1,0.1-0.1,0.1-0.2,0.2C47.9,46.1,47.5,45.7,47.2,45.3z"
	/>
<path class="st0" d="M230.5,56.4c-0.1,0-0.2-0.1-0.3-0.1c-0.3-0.5-0.7-1.1-1-1.6c0.2-0.1,0.3-0.2,0.5-0.3
	C230,55.1,230.3,55.8,230.5,56.4z"/>
<path class="st0" d="M10.9,104.2c0.2,0,0.4,0.1,0.6,0.1c-0.3,0.5-0.6,1-1,1.5c-0.1-0.1-0.2-0.1-0.4-0.2
	C10.4,105.1,10.7,104.7,10.9,104.2z"/>
<path class="st0" d="M253.6,128.1c-0.5,0.2-0.9,0.3-1.4,0.5c0-0.4,0-0.7,0-1.4C252.8,127.6,253.2,127.8,253.6,128.1z"/>
<path class="st0" d="M134,248c-0.1,0-0.2,0-0.3,0c0-0.6,0-1.2-0.1-1.8c0.2,0.2,0.4,0.4,0.7,0.6C134.2,247.2,134.1,247.6,134,248z"/>
<path class="st0" d="M31.8,180.1c-0.1-0.1-0.2-0.1-0.4-0.2c-0.1-0.9-0.1-1.9-0.2-2.8C31.4,178.1,31.6,179.1,31.8,180.1z"/>
<path class="st0" d="M214,222c-0.2,0-0.4-0.1-0.6-0.1c-0.1-0.5-0.2-1.1-0.4-1.6c0.1-0.1,0.1-0.1,0.2-0.2
	C213.5,220.8,213.8,221.4,214,222z"/>
<path class="st0" d="M49.4,47.4c0.4,0.4,0.7,0.8,1.1,1.2c0,0.1,0,0.3,0,0.4c-0.4-0.5-0.8-0.9-1.3-1.4C49.3,47.5,49.3,47.5,49.4,47.4
	z"/>
<path class="st0" d="M99.7,21.2c-0.1,0.2-0.2,0.4-0.2,0.6c-0.3,0.1-0.6,0.2-0.9,0.4c-0.1-0.2-0.1-0.4-0.2-0.5
	C98.9,21.5,99.3,21.4,99.7,21.2z"/>
<path class="st0" d="M175.3,248.6c0-0.2,0-0.4,0-0.5c0.3,0,0.6,0,1,0c0,0.2,0,0.3,0,0.5C176,248.6,175.7,248.6,175.3,248.6z"/>
<path class="st0" d="M39.2,200.8c0.3,0.4,0.6,0.8,0.9,1.2c0,0,0,0,0,0C39.8,201.6,39.5,201.2,39.2,200.8L39.2,200.8z"/>
<path class="st0" d="M208.4,218.5c0.4-0.4,0.8-0.8,1.1-1.2c0.1,0.1,0.1,0.1,0.2,0.2C209.3,217.8,208.9,218.1,208.4,218.5
	C208.4,218.5,208.4,218.5,208.4,218.5z"/>
<path class="st0" d="M21.2,83.6c-0.4-0.4-0.8-0.7-1.2-1.1c0.1-0.1,0.1-0.1,0.2-0.2c0.4,0.4,0.8,0.7,1.2,1.1
	C21.3,83.5,21.2,83.6,21.2,83.6z"/>
<path class="st0" d="M203.9,42.2c-0.2,0-0.4,0-0.5,0c-0.3-0.4-0.6-0.8-0.9-1.2c0,0,0,0,0,0C203,41.4,203.4,41.8,203.9,42.2z"/>
<path class="st0" d="M7.2,132.6c0.2,0,0.3,0.1,0.5,0.1c-0.1,0.4-0.2,0.8-0.3,1.2c-0.1,0-0.2,0-0.3,0C7.2,133.4,7.2,133,7.2,132.6z"
	/>
<path class="st0" d="M222,60.5c0.1-0.1,0.2-0.1,0.3-0.2c0.3,0.3,0.5,0.6,0.8,0.9c-0.1,0.1-0.2,0.2-0.3,0.3
	C222.5,61.1,222.3,60.8,222,60.5z"/>
<path class="st0" d="M231.2,207c-0.4,0.4-0.8,0.8-1.2,1.2c0,0,0,0,0,0C230.3,207.8,230.7,207.4,231.2,207L231.2,207z"/>
<path class="st0" d="M73.3,34.5c-0.3-0.1-0.6-0.1-0.9-0.2c0-0.3,0-0.5,0-0.8c0.1,0,0.2-0.1,0.2-0.1C72.8,33.7,73.1,34.1,73.3,34.5z"
	/>
<path class="st0" d="M223.8,71.1c0.1,0,0.3,0,0.4,0c0.2,0.5,0.4,0.9,0.6,1.4c-0.1,0.1-0.1,0.1-0.2,0.2
	C224.3,72.2,224.1,71.7,223.8,71.1z"/>
<path class="st0" d="M243.2,187.8c0.2-0.4,0.4-0.9,0.6-1.3c0.1,0.1,0.3,0.2,0.4,0.3C243.9,187.1,243.6,187.4,243.2,187.8
	L243.2,187.8z"/>
<path class="st0" d="M193,34.6c-0.4-0.3-0.8-0.5-1.3-0.8c0.1-0.1,0.1-0.1,0.2-0.2c0.4,0.3,0.8,0.5,1.3,0.8
	C193.1,34.5,193.1,34.5,193,34.6z"/>
<path class="st0" d="M241.8,73.8c0-0.1,0-0.2,0-0.3c0.3,0.4,0.6,0.7,0.9,1.1c-0.1,0.1-0.2,0.2-0.4,0.3
	C242.2,74.5,242,74.2,241.8,73.8z"/>
<path class="st0" d="M60.3,234.2c0.3,0.1,0.6,0.3,0.8,0.4c0,0.1-0.1,0.1-0.1,0.2c-0.3-0.1-0.6-0.3-0.9-0.4
	C60.2,234.3,60.3,234.2,60.3,234.2z"/>
<path class="st0" d="M97.9,22.9c-0.2-0.5-0.3-0.9-0.5-1.4C97.6,22,97.8,22.5,97.9,22.9z"/>
<path class="st0" d="M18.5,81.2c0.3,0,0.6,0.1,0.9,0.1c0.1,0.1,0.2,0.3,0.3,0.4c0,0,0,0,0,0c0,0.1,0,0.2,0.1,0.3
	c-0.1,0.1-0.1,0.1-0.2,0.2C19.2,81.9,18.9,81.6,18.5,81.2z"/>
<path class="st0" d="M23.1,84.9c0.3,0.3,0.6,0.6,0.9,0.8c-0.1,0.1-0.1,0.1-0.2,0.2c-0.3-0.3-0.6-0.6-0.9-0.8
	C22.9,85.1,23,85,23.1,84.9z"/>
<path class="st0" d="M197.8,220.6c0,0.1,0,0.3,0,0.4c-0.3,0.2-0.7,0.4-1,0.6c-0.1-0.1-0.1-0.1-0.2-0.2
	C197,221.1,197.4,220.9,197.8,220.6z"/>
<path class="st0" d="M192.6,31.7c0.3-0.3,0.6-0.5,1-0.8c0.1,0.1,0.2,0.2,0.2,0.2c-0.3,0.3-0.7,0.5-1,0.8
	C192.8,31.9,192.7,31.8,192.6,31.7z"/>
<path class="st0" d="M243.7,168.9c-0.3-0.2-0.5-0.4-0.8-0.6c0.1-0.1,0.1-0.2,0.2-0.2c0.3,0.2,0.6,0.4,0.9,0.6
	C243.9,168.7,243.8,168.8,243.7,168.9z"/>
<path class="st0" d="M153.6,21c-0.1-0.3-0.2-0.7-0.3-1c0.3,0,0.5,0.1,0.9,0.2C153.9,20.5,153.8,20.8,153.6,21z"/>
<path class="st0" d="M224.8,72.5c0.4,0.2,0.7,0.4,1.1,0.6c-0.2,0.2-0.3,0.3-0.5,0.5c-0.2-0.3-0.5-0.6-0.7-0.9
	C224.6,72.6,224.7,72.6,224.8,72.5z"/>
<path class="st0" d="M194.1,30.5c0.3-0.3,0.6-0.5,1-0.8c0.1,0.1,0.1,0.1,0.2,0.2c-0.3,0.3-0.7,0.5-1,0.8
	C194.2,30.7,194.2,30.6,194.1,30.5z"/>
<path class="st0" d="M194.1,35.3c-0.4-0.2-0.7-0.4-1.1-0.7c0.1-0.1,0.1-0.1,0.2-0.2c0.4,0.2,0.7,0.5,1.1,0.7
	C194.2,35.1,194.2,35.2,194.1,35.3z"/>
<path class="st0" d="M177.7,248.2c-0.2,0.1-0.3,0.3-0.4,0.3c-0.1,0-0.3-0.2-0.3-0.2c0.1-0.2,0.2-0.3,0.3-0.4
	C177.4,248,177.5,248.1,177.7,248.2z"/>
<path class="st0" d="M95.1,13.6c0-0.1-0.1-0.2-0.1-0.3c0.1-0.2,0.2-0.3,0.2-0.5c0.1,0.1,0.2,0.1,0.3,0.2
	C95.4,13.2,95.3,13.4,95.1,13.6z"/>
<path class="st0" d="M134,243c-0.2,0-0.4,0-0.6,0c0-0.2,0-0.4,0-0.7c0.1,0,0.1-0.1,0.2-0.1C133.7,242.5,133.9,242.7,134,243z"/>
<path class="st0" d="M231.8,205.7c0.2,0.1,0.4,0.2,0.6,0.3c-0.2,0.2-0.4,0.4-0.6,0.6l0,0C231.7,206.3,231.8,206,231.8,205.7z"/>
<path class="st0" d="M100.7,21.4c-0.2-0.1-0.4-0.2-0.6-0.2c0.1-0.2,0.2-0.4,0.3-0.5c0.1,0,0.2,0.1,0.3,0.1
	C100.7,21,100.7,21.2,100.7,21.4z"/>
<path class="st0" d="M18.9,109.2c-0.1,0-0.2,0-0.3,0c0.2-0.3,0.4-0.5,0.6-0.8c0,0,0,0,0,0C19.1,108.6,19,108.9,18.9,109.2z"/>
<path class="st0" d="M250.6,126.8c0.1,0.2,0.1,0.4,0.2,0.5c-0.1,0-0.2,0.1-0.2,0.1c-0.1-0.2-0.1-0.4-0.2-0.6
	C250.4,126.9,250.5,126.9,250.6,126.8z"/>
<path class="st0" d="M251.4,127.8c-0.1-0.2-0.1-0.3-0.2-0.5c0.1,0,0.1-0.1,0.2-0.1c0.1,0.1,0.2,0.3,0.3,0.4
	C251.6,127.7,251.5,127.7,251.4,127.8z"/>
<path class="st0" d="M29.4,175.8c0.1-0.1,0.2-0.3,0.4-0.4c0.2,0.2,0.4,0.4,0.6,0.6C30.1,175.9,29.7,175.8,29.4,175.8z"/>
<path class="st0" d="M152.6,255.1c-0.3,0.1-0.5,0.2-0.8,0.3c0-0.1,0-0.2-0.1-0.2C152.1,255.2,152.3,255.1,152.6,255.1
	C152.6,255.1,152.6,255.1,152.6,255.1z"/>
<path class="st0" d="M31.1,68.5c-0.2-0.1-0.3-0.3-0.5-0.4c0-0.1,0.1-0.1,0.1-0.2c0.2,0.1,0.4,0.2,0.6,0.3
	C31.3,68.3,31.2,68.4,31.1,68.5z"/>
<path class="st0" d="M226.5,189.4c-0.1,0.2-0.3,0.3-0.4,0.5c-0.1,0-0.1-0.1-0.2-0.1c0.1-0.2,0.3-0.4,0.4-0.6
	C226.3,189.3,226.4,189.3,226.5,189.4z"/>
<path class="st0" d="M29.8,67.3c0.2,0.1,0.4,0.2,0.6,0.3c-0.1,0.1-0.1,0.1-0.2,0.2C30.1,67.7,29.9,67.5,29.8,67.3
	C29.8,67.3,29.8,67.3,29.8,67.3z"/>
<path class="st0" d="M227.8,195.8c-0.2-0.1-0.3-0.3-0.5-0.4c0-0.1,0.1-0.1,0.1-0.2c0.2,0.1,0.4,0.2,0.6,0.3
	C227.9,195.6,227.8,195.7,227.8,195.8z"/>
<path class="st0" d="M39.4,65.7c-0.2,0-0.5,0.1-0.7,0.1c0-0.2,0.1-0.3,0.1-0.5C38.9,65.5,39.2,65.6,39.4,65.7z"/>
<path class="st0" d="M37.8,64.7c0.2,0.1,0.3,0.2,0.5,0.3c0,0.1-0.1,0.1-0.1,0.2c-0.2-0.1-0.4-0.2-0.5-0.3
	C37.8,64.8,37.8,64.7,37.8,64.7z"/>
<path class="st0" d="M36.9,64c0.2,0.2,0.4,0.3,0.6,0.5c0,0.1-0.1,0.1-0.1,0.2c-0.2-0.1-0.4-0.3-0.6-0.4C36.8,64.1,36.9,64.1,36.9,64
	z"/>
<path class="st0" d="M219.1,207.9c0.1-0.2,0.2-0.5,0.3-0.7c0.2,0.1,0.3,0.2,0.5,0.4C219.5,207.6,219.3,207.8,219.1,207.9
	C219.1,207.9,219.1,207.9,219.1,207.9z"/>
<path class="st0" d="M216.7,210.2c0.2-0.2,0.4-0.4,0.6-0.6c0,0,0,0,0,0C217.1,209.8,216.9,210,216.7,210.2
	C216.7,210.2,216.7,210.2,216.7,210.2z"/>
<path class="st0" d="M196.5,227c0.1,0.2,0.3,0.3,0.4,0.5c-0.1,0.1-0.3,0.2-0.4,0.4c-0.1-0.2-0.2-0.3-0.4-0.5
	C196.3,227.2,196.4,227.1,196.5,227z"/>
<path class="st0" d="M71.3,240.9c0.1,0.1,0.3,0.2,0.4,0.3c0,0.1-0.1,0.1-0.1,0.2c-0.2-0.1-0.3-0.2-0.5-0.3
	C71.2,241.1,71.3,241,71.3,240.9z"/>
<path class="st0" d="M196.3,28.9c0,0.2,0,0.4,0,0.7c-0.2,0-0.4,0-0.5,0c-0.1-0.1-0.1-0.1-0.2-0.2C195.8,29.2,196,29,196.3,28.9z"/>
<path class="st0" d="M63.5,31.9c0.2,0,0.3,0,0.5,0c0,0.2,0,0.3,0,0.5C63.8,32.2,63.6,32,63.5,31.9z"/>
<path class="st0" d="M256.5,137.3L256.5,137.3c-0.1,0-0.2,0-0.2,0c0-0.3,0-0.5,0-0.8c0.1,0,0.1,0,0.2,0
	C256.5,136.8,256.5,137,256.5,137.3z"/>
<path class="st0" d="M205.5,31.6c-0.2-0.1-0.3-0.1-0.5-0.2c0,0,0-0.1,0.1-0.1C205.2,31.4,205.3,31.5,205.5,31.6
	C205.5,31.6,205.5,31.6,205.5,31.6z"/>
<path class="st0" d="M94.6,22.8c0.2,0,0.3,0,0.5,0c0,0,0,0.1,0,0.1c-0.2,0-0.3,0-0.5,0C94.6,22.9,94.6,22.9,94.6,22.8z"/>
<path class="st0" d="M243.3,187.8c-0.1,0.1-0.2,0.1-0.3,0.2c0,0,0-0.1-0.1-0.1C243,187.8,243.1,187.8,243.3,187.8
	C243.2,187.8,243.3,187.8,243.3,187.8z"/>
<path class="st0" d="M245.3,184C245.4,183.8,245.4,183.6,245.3,184C245.5,183.7,245.4,183.8,245.3,184
	C245.3,183.9,245.3,184,245.3,184z"/>
<path class="st0" d="M252.1,99.3c0.1,0.2,0.2,0.4,0.3,0.7c-0.1,0-0.1,0.1-0.2,0.1c-0.1-0.2-0.2-0.4-0.3-0.6
	C252,99.5,252.1,99.4,252.1,99.3z"/>
<path class="st0" d="M22.3,84.6c-0.2-0.1-0.3-0.3-0.5-0.4c0.1-0.1,0.1-0.1,0.2-0.2c0.2,0.1,0.3,0.3,0.5,0.4
	C22.4,84.4,22.3,84.5,22.3,84.6z"/>
<path class="st0" d="M38.6,191.3C38.7,191.4,38.8,191.6,38.6,191.3C38.7,191.6,38.7,191.4,38.6,191.3
	C38.7,191.3,38.6,191.3,38.6,191.3z"/>
<path class="st0" d="M210.2,216.7c0.2-0.1,0.3-0.3,0.5-0.4c0,0.1,0.1,0.1,0.1,0.2c-0.2,0.1-0.3,0.3-0.5,0.4
	C210.3,216.8,210.2,216.7,210.2,216.7z"/>
<path class="st0" d="M237.2,179.5C237.2,179.4,237.1,179.4,237.2,179.5c-0.1-0.2,0-0.2,0-0.3c0,0,0.1,0.1,0.1,0.1
	C237.3,179.3,237.2,179.4,237.2,179.5z"/>
<path class="st0" d="M69.3,225.8c0,0.1,0,0.3-0.1,0.4c0,0-0.1,0-0.1-0.1C69.2,226.1,69.3,226,69.3,225.8
	C69.4,225.9,69.3,225.8,69.3,225.8z"/>
<path class="st0" d="M31,176.9c-0.1-0.2-0.2-0.4-0.3-0.6C30.8,176.4,30.9,176.7,31,176.9z"/>
<path class="st0" d="M230.6,82.7c0.2,0.1,0.4,0.2,0.6,0.3C231,82.9,230.8,82.8,230.6,82.7z"/>
<path class="st0" d="M243.2,76.2c0,0-0.1,0.1-0.1,0.1c0,0-0.1-0.1-0.1-0.1c0,0,0.1-0.1,0.1-0.1C243.1,76.1,243.2,76.1,243.2,76.2z"
	/>
<path class="st0" d="M47.8,204c-0.1-0.1-0.1-0.2-0.2-0.3c0,0,0.1,0,0.1-0.1C47.7,203.8,47.8,203.9,47.8,204
	C47.8,204,47.8,204,47.8,204z"/>
<path class="st0" d="M24.5,103.9c-0.1-0.1-0.2-0.2-0.2-0.3c0,0,0.1-0.1,0.1-0.1C24.4,103.7,24.4,103.8,24.5,103.9
	C24.5,103.9,24.5,103.9,24.5,103.9z"/>
<path class="st0" d="M228.2,77.9c-0.1,0-0.1-0.1-0.2-0.1c0,0,0.1-0.1,0.1-0.1C228.2,77.8,228.2,77.9,228.2,77.9
	C228.2,77.9,228.2,77.9,228.2,77.9z"/>
<path class="st0" d="M222.2,60.1c0-0.2,0-0.4,0.1-0.6C222.3,59.7,222.3,59.9,222.2,60.1z"/>
<path class="st0" d="M48.4,224.7c0.1,0,0.3,0,0.4,0.1c0,0,0,0.1-0.1,0.1C48.6,224.8,48.5,224.7,48.4,224.7
	C48.4,224.7,48.4,224.7,48.4,224.7z"/>
<path class="st0" d="M9.8,106.4c0-0.1,0-0.1,0-0.2c0,0,0.1,0,0.1,0C9.9,106.3,9.9,106.3,9.8,106.4z"/>
<path class="st0" d="M234.4,79.4c0-0.2,0-0.4,0-0.6C234.4,79,234.4,79.2,234.4,79.4z"/>
<path class="st0" d="M208.1,52.3c-0.2-0.1-0.3-0.1-0.5-0.2c0-0.1,0-0.1,0-0.2c0.2,0,0.4,0.1,0.6,0.1
	C208.2,52.2,208.1,52.2,208.1,52.3z"/>
<path class="st0" d="M77.6,36C77.5,36.1,77.4,36.2,77.6,36C77.4,36.1,77.5,36,77.6,36C77.6,36,77.6,36,77.6,36z"/>
<path class="st0" d="M186.6,36C186.4,36,186.3,36,186.6,36C186.3,35.9,186.4,35.9,186.6,36C186.6,36,186.6,36,186.6,36z"/>
<path class="st0" d="M192.1,32.1c0.2-0.1,0.3-0.3,0.5-0.4c0.1,0.1,0.1,0.2,0.2,0.2c-0.2,0.1-0.3,0.3-0.5,0.4
	C192.3,32.3,192.2,32.2,192.1,32.1z"/>
<path class="st0" d="M82.1,234.4c0,0.1,0,0.2,0,0.3c-0.1,0.1-0.2,0.2-0.2,0.3c-0.1-0.1-0.1-0.1-0.2-0.2
	C81.8,234.7,81.9,234.6,82.1,234.4z"/>
<path class="st0" d="M33.6,58.2c0.1,0,0.2,0.1,0.4,0.1c0,0.1-0.1,0.1-0.1,0.2C33.8,58.3,33.7,58.2,33.6,58.2
	C33.6,58.2,33.6,58.2,33.6,58.2z"/>
<path class="st0" d="M193.6,30.9c0.2-0.1,0.3-0.3,0.5-0.4c0.1,0.1,0.1,0.1,0.2,0.2c-0.2,0.1-0.3,0.3-0.5,0.4
	C193.8,31.1,193.7,31,193.6,30.9z"/>
<path class="st0" d="M48.9,47.3c-0.1-0.2-0.3-0.3-0.4-0.5c0.1-0.1,0.1-0.1,0.2-0.2c0.1,0.2,0.3,0.3,0.4,0.5
	C49.1,47.2,49,47.2,48.9,47.3z"/>
<path class="st0" d="M178,238.1C178,238.1,178,238.1,178,238.1c0,0.1-0.1,0.1-0.1,0.1c0-0.1,0-0.1,0-0.2
	C177.9,238,178,238.1,178,238.1z"/>
<path class="st0" d="M231.7,206.7c-0.2,0.1-0.4,0.2-0.6,0.3c0,0,0,0,0,0C231.3,206.9,231.5,206.8,231.7,206.7L231.7,206.7z"/>
<path class="st0" d="M28.9,92.5c-0.1,0-0.1,0-0.2,0.1c0-0.1,0-0.2,0-0.2c0,0,0.1,0,0.1-0.1C28.8,92.4,28.8,92.4,28.9,92.5z"/>
<path class="st0" d="M35.7,186.6C35.6,186.5,35.5,186.3,35.7,186.6C35.6,186.3,35.7,186.5,35.7,186.6L35.7,186.6z"/>
<path class="st0" d="M60.5,30.1c-0.2,0.1-0.4,0.2-0.6,0.3l0,0C60.1,30.3,60.3,30.2,60.5,30.1C60.5,30.1,60.5,30.1,60.5,30.1z"/>
<path class="st0" d="M195.1,29.8c0.2-0.1,0.3-0.3,0.5-0.4c0.1,0.1,0.1,0.1,0.2,0.2c-0.2,0.1-0.3,0.3-0.5,0.4
	C195.2,29.9,195.2,29.8,195.1,29.8z"/>
<path class="st0" d="M90.8,29.7c-0.1,0-0.1,0.1-0.2,0.1c-0.1,0-0.1-0.1-0.2-0.1c0,0,0.1-0.1,0.1-0.1C90.7,29.6,90.7,29.6,90.8,29.7z
	"/>
<path class="st0" d="M21.8,190.4c-0.1-0.2-0.2-0.4-0.3-0.6c0,0,0,0,0,0C21.6,190,21.7,190.2,21.8,190.4
	C21.8,190.4,21.8,190.4,21.8,190.4z"/>
<path class="st0" d="M178,16.5c-0.2-0.1-0.4-0.2-0.6-0.3c0,0,0,0,0,0C177.6,16.3,177.8,16.4,178,16.5C178,16.5,178,16.5,178,16.5z"
	/>
<path class="st0" d="M177.4,16.2c-0.1,0-0.2-0.1-0.3-0.1c0,0,0.1-0.1,0.1-0.1C177.3,16.1,177.3,16.2,177.4,16.2
	C177.4,16.2,177.4,16.2,177.4,16.2z"/>
<path class="st0" d="M168.9,13.3c-0.2-0.1-0.4-0.2-0.6-0.3c0,0,0,0,0,0C168.5,13.1,168.6,13.2,168.9,13.3
	C168.8,13.3,168.9,13.3,168.9,13.3z"/>
<path class="st0" d="M168.3,13C168.2,12.9,168.1,12.9,168.3,13C168.1,12.9,168.2,12.9,168.3,13C168.3,13,168.3,13,168.3,13z"/>
<path class="st0" d="M100.9,252.9c-0.1,0-0.1-0.1-0.2-0.1c0,0,0.1-0.1,0.1-0.1c0.1,0,0.1,0.1,0.2,0.1
	C101,252.9,101,252.9,100.9,252.9z"/>
<path class="st0" d="M21.8,84.2c-0.1-0.1-0.2-0.2-0.3-0.3c0.1-0.1,0.1-0.1,0.2-0.2c0.1,0.1,0.2,0.2,0.3,0.3
	C21.9,84.1,21.8,84.1,21.8,84.2z"/>
<path class="st0" d="M53.4,54.3c0,0,0,0.1-0.1,0.1C53.4,54.4,53.4,54.4,53.4,54.3C53.4,54.3,53.4,54.3,53.4,54.3z"/>
<path class="st0" d="M53.7,54c-0.1,0.1-0.2,0.2-0.3,0.3c0,0,0,0,0,0C53.5,54.2,53.6,54.1,53.7,54C53.7,54,53.7,54,53.7,54z"/>
<path class="st0" d="M209.8,217c0.1-0.1,0.2-0.2,0.3-0.3c0.1,0.1,0.1,0.1,0.2,0.2c-0.1,0.1-0.2,0.2-0.3,0.3
	C210,217.1,209.9,217,209.8,217z"/>
<path class="st0" d="M209.5,217.2c0.1-0.1,0.2-0.2,0.3-0.3c0.1,0.1,0.1,0.1,0.2,0.2c-0.1,0.1-0.2,0.2-0.3,0.3
	C209.7,217.4,209.6,217.3,209.5,217.2z"/>
<path class="st0" d="M22.6,84.9c-0.1-0.1-0.2-0.2-0.3-0.3c0.1-0.1,0.1-0.1,0.2-0.2c0.1,0.1,0.2,0.2,0.3,0.3
	C22.7,84.7,22.6,84.8,22.6,84.9z"/>
<path class="st0" d="M22.9,85.1c-0.1-0.1-0.2-0.2-0.3-0.3c0.1-0.1,0.1-0.1,0.2-0.2c0.1,0.1,0.2,0.2,0.3,0.3
	C23,85,22.9,85.1,22.9,85.1z"/>
<path class="st0" d="M202.2,217.6c-0.1,0.1-0.2,0.2-0.3,0.3l0,0C202,217.8,202.1,217.7,202.2,217.6
	C202.2,217.6,202.2,217.6,202.2,217.6z"/>
<path class="st0" d="M201.9,217.9c0,0,0,0.1-0.1,0.1c0,0-0.1,0-0.1,0C201.8,218,201.9,217.9,201.9,217.9
	C201.9,217.9,201.9,217.9,201.9,217.9z"/>
<path class="st0" d="M38,53.2c0,0,0.1,0.1,0.1,0.1C38.2,53.2,38.1,53.3,38,53.2C38.1,53.2,38.1,53.2,38,53.2
	C38.1,53.1,38,53.2,38,53.2z"/>
<path class="st0" d="M24.1,86.3c-0.1-0.1-0.2-0.2-0.3-0.3c0.1-0.1,0.1-0.1,0.2-0.2c0.1,0.1,0.2,0.2,0.3,0.3
	C24.2,86.1,24.2,86.2,24.1,86.3z"/>
<path class="st0" d="M24.3,86.1c0,0.1,0.1,0.2,0.1,0.3c-0.1,0-0.2-0.1-0.3-0.1C24.2,86.2,24.2,86.1,24.3,86.1z"/>
<path class="st0" d="M71.1,223.7c0,0-0.1,0.1-0.1,0.1c0,0-0.1-0.1-0.1-0.1c0,0,0.1-0.1,0.1-0.1C71,223.6,71,223.6,71.1,223.7z"/>
<path class="st0" d="M214.3,38.7c-0.1,0-0.1-0.1-0.2-0.1C214.2,38.6,214.2,38.6,214.3,38.7C214.3,38.6,214.3,38.6,214.3,38.7
	C214.3,38.7,214.3,38.7,214.3,38.7z"/>
<path class="st0" d="M71.7,226.4c-0.1,0.1-0.1,0.1-0.2,0.2C71.6,226.6,71.7,226.5,71.7,226.4C71.7,226.4,71.7,226.4,71.7,226.4z"/>
<polygon class="st0" points="35.7,186.6 35.8,186.6 35.7,186.6 "/>
<path class="st0" d="M226.4,198.4c0-0.1,0.1-0.2,0.1-0.2C226.5,198.2,226.5,198.3,226.4,198.4C226.4,198.4,226.4,198.4,226.4,198.4z
	"/>
<path class="st0" d="M25.9,66.7c0,0.1-0.1,0.1-0.1,0.2c0,0,0-0.1-0.1-0.1C25.8,66.8,25.9,66.7,25.9,66.7
	C26,66.7,25.9,66.7,25.9,66.7z"/>
<path class="st0" d="M75.1,37.4c0,0.1,0,0.2,0,0.3c-0.1-0.1-0.1-0.1-0.2-0.2C75,37.5,75,37.4,75.1,37.4z"/>
<path class="st0" d="M56.1,229.1c0-0.1,0.1-0.1,0.1-0.2c0,0.1,0,0.1,0.1,0.2C56.2,229.1,56.1,229.1,56.1,229.1
	C56.1,229.1,56.1,229.1,56.1,229.1z"/>
<path class="st0" d="M59,230.3c0-0.1,0-0.2,0-0.2C59.1,230.1,59,230.2,59,230.3C59,230.3,59,230.3,59,230.3z"/>
<path class="st0" d="M29.2,199.6c0-0.1,0.1-0.2,0.1-0.2C29.3,199.4,29.2,199.5,29.2,199.6C29.2,199.6,29.2,199.6,29.2,199.6z"/>
<path class="st0" d="M77.6,36c0.1-0.1,0.2-0.2,0.3-0.3c0,0,0,0,0,0C77.8,35.8,77.7,35.9,77.6,36C77.6,36,77.6,36,77.6,36z"/>
<path class="st0" d="M198.6,230.6c0.1-0.1,0.2-0.2,0.3-0.3C198.8,230.4,198.7,230.5,198.6,230.6z"/>
<path class="st0" d="M194.6,35.2c0,0.1,0,0.2-0.1,0.3c-0.1-0.1-0.2-0.1-0.4-0.2c0.1-0.1,0.1-0.1,0.2-0.2
	C194.4,35.1,194.5,35.2,194.6,35.2z"/>
<path class="st0" d="M199.1,231.3c0-0.2-0.1-0.3-0.1-0.5c0.1,0,0.2,0.1,0.4,0.1C199.3,231.1,199.2,231.2,199.1,231.3z"/>
<path class="st0" d="M209,34.5c0,0,0.1,0.1,0.1,0.1C209.1,34.6,209,34.6,209,34.5C209,34.6,209,34.5,209,34.5z"/>
<path class="st0" d="M51.4,49.6c0.1,0.1,0.1,0.2,0.2,0.3c-0.1,0-0.3-0.1-0.4-0.1C51.3,49.7,51.3,49.6,51.4,49.6z"/>
<path class="st0" d="M51.2,49.8c-0.1-0.1-0.2-0.2-0.3-0.3c0.1-0.1,0.1-0.1,0.2-0.2c0.1,0.1,0.2,0.2,0.3,0.3
	C51.3,49.6,51.3,49.7,51.2,49.8z"/>
<path class="st0" d="M23.3,193.1c0,0,0.1,0,0.1,0.1c0,0,0,0.1,0,0.1C23.4,193.2,23.3,193.1,23.3,193.1
	C23.3,193.1,23.3,193.1,23.3,193.1z"/>
<path class="st0" d="M31.3,177.1c-0.1-0.1-0.2-0.2-0.3-0.3C31.1,176.9,31.2,177,31.3,177.1z"/>
<path class="st0" d="M50.8,49c0.1,0.1,0.2,0.2,0.3,0.3c-0.1,0.1-0.1,0.1-0.2,0.2c-0.1-0.1-0.2-0.2-0.3-0.3
	C50.7,49.1,50.7,49,50.8,49z"/>
<path class="st0" d="M85.9,31.9c0,0.1-0.1,0.1-0.1,0.2c0,0-0.1-0.1-0.1-0.1C85.7,31.9,85.8,31.9,85.9,31.9L85.9,31.9z"/>
<path class="st0" d="M85.9,31.9c0.1-0.1,0.1-0.1,0.2-0.2c0,0,0.1,0.1,0.1,0.1C86.1,31.8,86,31.9,85.9,31.9
	C85.9,31.9,85.9,31.9,85.9,31.9z"/>
<path class="st0" d="M50.5,49c0-0.1,0-0.3,0-0.4c0.1,0.1,0.2,0.3,0.3,0.4c0,0.1-0.1,0.1-0.1,0.2C50.6,49.1,50.5,49.1,50.5,49z"/>
<path class="st0" d="M30.7,176.3c-0.1-0.1-0.2-0.2-0.3-0.3C30.5,176.1,30.6,176.2,30.7,176.3z"/>
<path class="st0" d="M30.1,60.5c-0.1,0.1-0.1,0.1-0.2,0.2C29.9,60.6,30,60.6,30.1,60.5C30,60.5,30.1,60.5,30.1,60.5z"/>
<path class="st0" d="M49.1,47.1c0.1,0.1,0.2,0.2,0.3,0.3c-0.1,0.1-0.1,0.1-0.2,0.2c-0.1-0.1-0.2-0.2-0.3-0.3
	C49,47.2,49.1,47.2,49.1,47.1z"/>
<path class="st0" d="M228.5,78.2c-0.1-0.1-0.2-0.2-0.3-0.3c0,0,0,0,0,0C228.3,78,228.4,78.1,228.5,78.2
	C228.5,78.2,228.5,78.2,228.5,78.2z"/>
<path class="st0" d="M19.8,82c0.1,0.1,0.2,0.2,0.3,0.3c-0.1,0.1-0.1,0.1-0.2,0.2c-0.1-0.1-0.2-0.2-0.3-0.3
	C19.7,82.1,19.7,82.1,19.8,82z"/>
<path class="st0" d="M21.6,189.8c-0.1,0-0.1-0.1-0.2-0.1C21.4,189.7,21.4,189.7,21.6,189.8C21.5,189.8,21.5,189.8,21.6,189.8
	C21.5,189.8,21.6,189.8,21.6,189.8z"/>
<path class="st0" d="M48.5,46.3c0.1,0.1,0.2,0.2,0.3,0.3c-0.1,0.1-0.1,0.1-0.2,0.2c-0.1-0.1-0.2-0.2-0.3-0.3
	C48.3,46.4,48.4,46.3,48.5,46.3z"/>
<polygon class="st0" points="59.9,30.4 59.9,30.5 59.9,30.4 "/>
<path class="st0" d="M208.1,45.7c-0.1-0.1-0.2-0.2-0.3-0.3l0,0C207.9,45.6,208,45.7,208.1,45.7C208.1,45.8,208.1,45.7,208.1,45.7z"
	/>
<path class="st0" d="M207.8,45.5C207.8,45.4,207.8,45.4,207.8,45.5c-0.1-0.1-0.1-0.1-0.1-0.2C207.8,45.4,207.8,45.4,207.8,45.5
	C207.8,45.5,207.8,45.5,207.8,45.5z"/>
<path class="st0" d="M218.7,44.9c0,0,0,0.1-0.1,0.1C218.7,44.9,218.7,44.9,218.7,44.9C218.8,44.9,218.7,44.9,218.7,44.9z"/>
<path class="st0" d="M235.9,80.6c0,0.1,0,0.2,0,0.3c-0.1-0.1-0.2-0.2-0.3-0.3c0,0,0.1-0.1,0.1-0.1C235.7,80.5,235.8,80.5,235.9,80.6
	z"/>
<path class="st0" d="M43.6,44c0,0.1,0,0.1,0,0.2C43.6,44.1,43.6,44.1,43.6,44C43.7,44,43.6,44,43.6,44z"/>
<path class="st0" d="M31.3,58.8c0,0,0-0.1,0-0.1C31.3,58.7,31.3,58.7,31.3,58.8C31.3,58.7,31.3,58.8,31.3,58.8z"/>
<path class="st0" d="M187.5,30.1c0-0.1,0-0.1,0-0.2C187.5,30,187.5,30,187.5,30.1C187.4,30.1,187.5,30.1,187.5,30.1z"/>
<path class="st0" d="M25.9,193.8c0,0-0.1,0.1-0.1,0.1c0,0-0.1-0.1-0.1-0.1C25.7,193.8,25.8,193.7,25.9,193.8
	C25.8,193.7,25.8,193.8,25.9,193.8z"/>
<path class="st0" d="M68.2,41.9c0,0,0,0.1-0.1,0.1c0,0-0.1,0-0.1,0C68.1,42,68.1,42,68.2,41.9C68.2,41.9,68.2,41.9,68.2,41.9z"/>
<path class="st0" d="M209.9,210.5c0.1-0.1,0.1-0.1,0.2-0.2C210,210.4,209.9,210.4,209.9,210.5C209.9,210.5,209.9,210.5,209.9,210.5z
	"/>
<path class="st0" d="M68.5,41.6c-0.1,0.1-0.2,0.2-0.3,0.3c0,0,0,0,0,0C68.3,41.8,68.4,41.7,68.5,41.6C68.5,41.6,68.5,41.6,68.5,41.6
	z"/>
<polygon class="st0" points="99.9,26.5 99.8,26.4 99.9,26.4 "/>
<path class="st0" d="M202.5,41c-0.2-0.1-0.4-0.2-0.6-0.3c0.1-0.1,0.1-0.2,0.2-0.3C202.3,40.7,202.4,40.8,202.5,41
	C202.5,41,202.5,41,202.5,41z"/>
<path class="st0" d="M39.2,212c0-0.1,0.1-0.1,0.1-0.2c0,0,0.1,0.1,0.1,0.1C39.4,211.9,39.3,211.9,39.2,212
	C39.2,212,39.2,212,39.2,212z"/>
<path class="st0" d="M202,40.8c0.1-0.1,0.1-0.2,0.2-0.3c0,0,0,0,0,0C202.1,40.6,202,40.7,202,40.8C202,40.8,202,40.8,202,40.8z"/>
<path class="st0" d="M55.5,212c0,0-0.1,0-0.1,0c0,0,0-0.1,0-0.1C55.4,211.9,55.4,211.9,55.5,212C55.5,212,55.5,212,55.5,212z"/>
<polygon class="st0" points="192.5,39.9 192.4,39.8 192.4,39.9 "/>
<path class="st0" d="M21.5,83.9c-0.1-0.1-0.2-0.2-0.3-0.3c0.1-0.1,0.1-0.1,0.2-0.2c0.1,0.1,0.2,0.2,0.3,0.3
	C21.6,83.8,21.5,83.8,21.5,83.9z"/>
<path class="st0" d="M55.5,212c0.1,0.1,0.2,0.2,0.3,0.3c0,0,0,0,0,0C55.7,212.2,55.6,212.1,55.5,212C55.5,212,55.5,212,55.5,212z"/>
<path class="st0" d="M214.3,38.7c0.1,0.1,0.2,0.2,0.3,0.3c0,0,0,0,0,0C214.5,38.9,214.4,38.8,214.3,38.7
	C214.3,38.7,214.3,38.7,214.3,38.7z"/>
<path class="st0" d="M124.1,8.1c0.1,0,0.2-0.1,0.3-0.1c0,0.1-0.1,0.2-0.1,0.3C124.3,8.2,124.2,8.2,124.1,8.1z"/>
<path class="st0" d="M41.9,196.3c0.1,0,0.1,0.1,0.2,0.1C42,196.4,42,196.5,41.9,196.3C41.9,196.4,41.9,196.4,41.9,196.3
	C41.9,196.3,41.9,196.3,41.9,196.3z"/>
<path class="st0" d="M95,251.2c0,0,0.1,0,0.1,0.1c0,0,0,0.1,0,0.1C95.1,251.3,95.1,251.3,95,251.2C95.1,251.2,95,251.2,95,251.2z"/>
<path class="st0" d="M37.5,213.7c0,0,0,0.1-0.1,0.1c0,0-0.1,0-0.1,0C37.4,213.8,37.4,213.8,37.5,213.7
	C37.5,213.8,37.5,213.7,37.5,213.7z"/>
<path class="st0" d="M51.1,224.7c0.1-0.1,0.1-0.1,0.2-0.2C51.2,224.5,51.1,224.6,51.1,224.7C51,224.7,51.1,224.7,51.1,224.7z"/>
<path class="st0" d="M19.8,81.8c-0.1-0.1-0.2-0.3-0.3-0.4C19.6,81.5,19.7,81.6,19.8,81.8z"/>
<path class="st0" d="M52.3,39c-0.1-0.2-0.2-0.5-0.3-0.7C52,38.5,52.1,38.7,52.3,39z"/>
<path class="st0" d="M54,45.2c0.1,0.1,0.2,0.2,0.3,0.3C54.2,45.4,54.1,45.3,54,45.2z"/>
<path class="st0" d="M228.8,207.8c0.1,0.1,0.2,0.2,0.3,0.2C229,208,228.9,207.9,228.8,207.8z"/>
<path class="st0" d="M145.3,149.5c2.2,1.2,4.3,2.3,6.2,3.4c4.6,2.7,8.1,6.4,9.8,11.5c1.6,5,0.3,9.1-3.9,12.3c-4.1,3.1-9,4.4-14,5.1
	c-0.4,0.1-0.7,0.1-1.5,0.2c0.6,0.6,1,0.9,1.4,1.3c1.9,1.4,3.8,2.7,5.6,4.1c0.8,0.6,1.5,1.4,2.1,2.2c2.6,3.4,2.3,6.9-1,9.7
	c-3.4,2.9-7.6,4.3-11.9,5.2c-0.9,0.2-1.2,0.5-1.2,1.4c-0.1,4.5-0.2,9-0.4,13.4c-0.1,3.3-2.3,5.5-5.3,5.3c-2.6-0.2-4.5-2.2-4.6-5.2
	c-0.2-4.5-0.3-9-0.4-13.4c0-1.1-0.3-1.6-1.5-1.8c-3.7-0.8-7.2-2-10.3-4.3c-4.3-3.2-4.9-7.5-1.1-11.3c1.9-1.9,4.3-3.4,6.4-5.1
	c0.6-0.4,1.1-0.9,2-1.5c-1.6-0.3-2.8-0.5-3.9-0.7c-3.9-0.8-7.7-2-11.1-4.3c-4.8-3.3-6.2-7.8-4.3-13.3c1.5-4.2,4.3-7.5,8-9.9
	c2.4-1.6,5-2.9,7.7-4.5c-0.7-0.3-1.2-0.5-1.8-0.7c-5.6-2.5-11.1-5-16.7-7.5c-0.5-0.2-1-0.6-1.5-0.9c-7-4.4-9.5-10.7-8.1-18.8
	c1-5.6,3.7-9.8,8.8-12.3c2.4-1.2,5.1-1.6,7.8-1c4.2,1,7.8,3,10.4,6.5c1,1.4,1.8,3.1,2,4.8c0.6,4.7-2.6,7.9-7.7,8.2
	c-1.4,0.1-2.8,0-4.1,0c-2.7,0.1-4.4,2.2-3.8,4.9c0.4,2.2,1.9,3.6,3.6,4.8c3.7,2.6,8,3.8,12.3,4.8c1.6,0.4,3.2,0.6,4.8,1
	c0-2.5,0.1-4.8,0-7.1c-0.2-9.2-0.5-18.5-0.8-27.7c-0.1-3.4-0.2-6.8-0.3-10.2c0-0.6-0.5-1.2-0.9-1.6c-1.8-2.2-4.3-2.4-7-2.3
	c-3.8,0.2-7.7,0.1-11.5,0c-1.2,0-1.9,0.3-2.7,1.3c-6.2,8.1-14.3,12.7-24.7,12.4c-9.8-0.3-17.4-4.9-23.2-12.7c-0.7-1-1.4-2-2-3.1
	c-0.2-0.4-0.4-0.8-0.7-1.4c22.3,0,44.4,0,66.5,0c-0.5-2.8-0.6-2.9-3.1-2.9c-20.7,0-41.4,0-62.1,0c-3,0-3.2-0.3-3.6-3.5
	c22.4,0,44.8,0,67.3,0c-0.1-5.8,1.9-10.7,6.6-14.2c3.1-2.4,6.7-3.4,10.7-3.2c7.4,0.4,15.5,6.5,15.3,17.6c22.4,0,44.8,0,67.5,0
	c-0.4,1.1-0.6,2-1,2.8c-0.1,0.3-0.6,0.5-1,0.6c-0.4,0.1-0.8,0-1.2,0c-20.9,0-41.7,0-62.6,0c-2.6,0-2.6,0-3.5,2.7
	c22.2,0,44.3,0,66.7,0c-0.3,0.7-0.5,1.2-0.8,1.6c-11.8,19.9-36.9,20.8-50,3.1c-0.7-0.9-1.3-1.2-2.4-1.2c-5,0.1-10,0-15.1,0
	c-2,0-4.1,2.1-4.1,4c-0.5,14.3-0.9,28.6-1.4,42.9c0,0.6,0,1.3,0,2c5.8-1,11.4-2.2,16.5-5.1c2.2-1.3,4-2.8,4.6-5.5
	c0.6-2.7-1.1-4.8-3.8-4.9c-1.4,0-2.9,0.1-4.3,0c-6.6-0.3-9.8-6.2-6.4-11.9c2.8-4.8,10.4-8.5,15.7-7.6c5.9,1,10.9,6.1,12,12.4
	c0.4,2.4,0.6,4.9,0.5,7.3c-0.3,5-3,8.6-6.9,11.5c-5.3,3.9-11.3,6.3-17.4,8.6C148.1,148.4,146.8,148.9,145.3,149.5z M118.9,82.8
	c0,7,5.8,12.8,12.8,12.8c7,0,12.8-5.7,12.8-12.8c0-7.1-5.8-12.9-12.9-12.8C124.6,70,118.9,75.7,118.9,82.8z M138.5,157.5
	c-0.2,6.4-0.4,12.7-0.6,19.2c1.3-0.1,2.4-0.2,3.4-0.4c3.5-0.6,6.8-1.4,9.7-3.6c2-1.5,2.5-3.1,1.8-5.4
	C151.3,161.9,144.8,157.4,138.5,157.5z M125.1,157.1c-1.8,0.5-3.4,0.7-4.9,1.3c-3.9,1.4-7.1,3.6-8.8,7.6c-1.4,3.3-0.8,5.6,2.4,7.2
	c2.6,1.3,5.4,2,8.2,2.8c1.1,0.3,2.3,0.3,3.6,0.5C125.4,169.9,125.2,163.7,125.1,157.1z M137.5,200.2c3.4,0,6.4-0.9,8.9-3.4
	c0.8-0.8,0.7-1.7,0.3-2.7c-1.2-2.9-5.4-5.1-9.2-4.7C137.5,192.9,137.5,196.4,137.5,200.2z M126.1,188.8c-2,0.6-3.6,1-5.1,1.6
	c-1.8,0.7-3.2,2-3.8,3.9c-0.2,0.7-0.1,1.6,0.2,2.2c1.2,2.1,6.3,4,8.6,3.5C126.1,196.3,126.1,192.8,126.1,188.8z M105.4,113.3
	c0.4,1.7,2.2,3.1,3.8,3.2c0.4,0,1.2-0.1,1.3-0.4c0.2-0.4,0.1-1.1-0.2-1.5c-0.3-0.4-0.9-0.9-1.4-1
	C107.8,113.5,106.6,113.5,105.4,113.3z M158.7,113.7c-1.3,0-2.3-0.2-3.2,0.1c-0.7,0.2-1.4,0.7-2,1.3c-0.2,0.2-0.3,1-0.1,1.3
	c0.1,0.3,0.8,0.4,1.2,0.4C156.4,116.5,157.7,115.5,158.7,113.7z"/>
<path class="st0" d="M113.1,81.8c-0.7,0-1.3,0-1.9,0c-20.5,0-40.9,0-61.4,0c-2.8,0-3.1-0.3-2.8-3.5c0.6,0,1.1,0,1.7,0
	c19.8,0,39.5,0,59.3,0c1.2,0,1.6-0.3,1.9-1.5c1.5-7.2,6-11.9,12.7-14.7c9.6-4,20.9-1.2,27.1,6.5c2.3,2.8,3.6,6.1,4.1,9.8
	c20.9,0,41.8,0,62.6,0c0.1,0.3,0.2,0.3,0.2,0.4c-0.4,3.1-0.4,3.1-3.4,3.1c-20.2,0-40.3,0-60.5,0c-0.6,0-1.2,0-2,0
	c0.3-6.1-2.1-11-6.9-14.5c-3.9-2.9-8.4-4-13.2-3.7c-4.8,0.3-9,2-12.5,5.4C114.5,72.6,112.9,76.8,113.1,81.8z"/>
<path class="st0" d="M133.4,73c4.8,1,8.1,4.7,8.2,9c-2.7,0-5.4,0-8.2,0C133.4,79,133.4,76,133.4,73z"/>
<path class="st0" d="M121.9,81.9c-0.1-4.3,3.8-8.4,8.2-8.9c0,0.2,0.1,0.4,0.1,0.6c0,2.7,0,5.5,0,8.4
	C127.4,81.9,124.7,81.9,121.9,81.9z"/>
<path class="st0" d="M141.5,84.5c-0.4,4.1-4.1,7.7-8.1,8.1c0-2.7,0-5.3,0-8.1C136.1,84.5,138.7,84.5,141.5,84.5z"/>
<path class="st0" d="M130.1,92.6c-4.1-0.5-7.7-4-8.1-8c2.7,0,5.3,0,8.1,0C130.1,87.2,130.1,89.9,130.1,92.6z"/>
</svg>
